<svg width="22" height="22" viewBox="0 0 22 22" fill="none" xmlns="http://www.w3.org/2000/svg">
<path d="M20.57 11.6597C20.43 11.2597 20.05 10.9997 19.6 10.9997H12.41C11.95 10.9997 11.58 11.2597 11.43 11.6597L10 15.7697V21.2797C10 21.6597 10.32 21.9997 10.7 21.9997H11.32C11.7 21.9997 12 21.6197 12 21.2397V19.9997H20V21.2397C20 21.6197 20.31 21.9997 20.69 21.9997H21.3C21.68 21.9997 22 21.6597 22 21.2797V15.7697L20.57 11.6597ZM12.41 11.9997H19.6L20.63 14.9997H11.38L12.41 11.9997ZM12 17.9997C11.45 17.9997 11 17.5497 11 16.9997C11 16.4497 11.45 15.9997 12 15.9997C12.55 15.9997 13 16.4497 13 16.9997C13 17.5497 12.55 17.9997 12 17.9997ZM20 17.9997C19.45 17.9997 19 17.5497 19 16.9997C19 16.4497 19.45 15.9997 20 15.9997C20.55 15.9997 21 16.4497 21 16.9997C21 17.5497 20.55 17.9997 20 17.9997ZM5.66 13.5297L6 15.9997L4.95 17.0597L3.19 13.8797L0 12.1097L1.06 11.0297L3.56 11.3997L7.43 7.52973L0 3.61973L1.42 2.20973L10.61 4.32973L14.5 0.439727C15.06 -0.145273 16.06 -0.145273 16.62 0.439727C17.21 1.02973 17.21 1.99973 16.62 2.55973L12.73 6.44973L13.55 9.99973H12.41C11.54 9.99973 10.79 10.4997 10.5 11.3097L10.47 11.3697L9.56 9.62973L5.66 13.5297Z" fill="#0D1C5E"/>
</svg>
