<svg width="20" height="20" viewBox="0 0 20 20" fill="none" xmlns="http://www.w3.org/2000/svg">
<path fill-rule="evenodd" clip-rule="evenodd" d="M12.2111 15.776C12.731 15.5161 13.3012 15.3726 13.8822 15.3555C14.4631 15.3384 15.0408 15.4481 15.5751 15.677L15.7891 15.777L18.4471 17.105C18.6754 17.219 18.8515 17.416 18.9393 17.6556C19.0271 17.8952 19.02 18.1593 18.9194 18.3938C18.8188 18.6284 18.6324 18.8156 18.3983 18.9171C18.1641 19.0187 17.9001 19.0268 17.6601 18.94L17.5531 18.894L14.8941 17.565C14.6447 17.4403 14.3721 17.3692 14.0936 17.3561C13.8152 17.343 13.537 17.3883 13.2771 17.489L13.1051 17.565L11.7891 18.224C11.269 18.4839 10.6986 18.6273 10.1174 18.6442C9.53626 18.6612 8.95841 18.5512 8.42409 18.322L8.21109 18.224L6.89409 17.565C6.64475 17.4403 6.37209 17.3692 6.09363 17.3561C5.81516 17.343 5.53703 17.3883 5.27709 17.489L5.10509 17.565L2.44709 18.895C2.21875 19.0105 1.95482 19.034 1.70964 18.9608C1.46446 18.8876 1.25667 18.7231 1.12906 18.5013C1.00144 18.2796 0.963701 18.0173 1.02361 17.7685C1.08351 17.5197 1.23651 17.3034 1.45109 17.164L1.55309 17.105L4.21109 15.776C4.73096 15.5161 5.30121 15.3726 5.88218 15.3555C6.46314 15.3384 7.04085 15.4481 7.57509 15.677L7.78909 15.777L9.10509 16.435C9.35458 16.5598 9.62741 16.631 9.90606 16.6441C10.1847 16.6572 10.463 16.6119 10.7231 16.511L10.8941 16.435L12.2111 15.776ZM11.0001 0C11.2653 0 11.5197 0.105357 11.7072 0.292893C11.8947 0.48043 12.0001 0.734784 12.0001 1V2.32L15.3291 2.874C15.7959 2.95209 16.2199 3.1932 16.5257 3.55446C16.8314 3.91572 16.9992 4.37371 16.9991 4.847V8.279L19.0591 8.965C19.2232 9.01973 19.3741 9.10791 19.5023 9.22397C19.6305 9.34003 19.7333 9.48143 19.8041 9.63924C19.8748 9.79705 19.9121 9.96783 19.9135 10.1408C19.9149 10.3137 19.8803 10.4851 19.8121 10.644L17.6431 15.704L15.7891 14.776C15.2336 14.4982 14.6211 14.3536 14.0001 14.3536C13.3791 14.3536 12.7666 14.4982 12.2111 14.776L10.8941 15.435C10.6164 15.5739 10.3101 15.6462 9.99959 15.6462C9.68908 15.6462 9.38282 15.5739 9.10509 15.435L7.78909 14.776C7.23363 14.4982 6.62113 14.3536 6.00009 14.3536C5.37906 14.3536 4.76655 14.4982 4.21109 14.776L2.94109 15.412L0.283094 10.761C0.191343 10.6004 0.136364 10.4215 0.122121 10.2371C0.107878 10.0527 0.134726 9.86748 0.200729 9.69472C0.266733 9.52197 0.370247 9.36601 0.503808 9.23809C0.637369 9.11017 0.79765 9.01349 0.973094 8.955L3.00009 8.279V4.847C3 4.37371 3.16775 3.91572 3.47353 3.55446C3.7793 3.1932 4.20329 2.95209 4.67009 2.874L8.00009 2.32V1C8.00009 0.734784 8.10545 0.48043 8.29299 0.292893C8.48052 0.105357 8.73488 0 9.00009 0H11.0001ZM10.0001 4.014L5.00009 4.847V7.613L9.36709 6.157C9.77765 6.02014 10.2215 6.02014 10.6321 6.157L15.0001 7.613V4.847L10.0001 4.014Z" fill="#0D1C5E"/>
</svg>
