<svg width="16" height="16" viewBox="0 0 16 16" fill="none" xmlns="http://www.w3.org/2000/svg">
<path d="M11.577 0.378698C10.8838 0.112049 10.1162 0.112049 9.423 0.378698L5.962 1.7087C5.67893 1.81746 5.43547 2.00947 5.26373 2.2594C5.09199 2.50933 5.00004 2.80545 5 3.1087V4.2097C5.33202 4.16788 5.66798 4.16788 6 4.2097V3.1097C5.99989 3.00864 6.03042 2.90992 6.08754 2.82655C6.14467 2.74318 6.22571 2.67908 6.32 2.6427L9.782 1.3117C10.2442 1.13393 10.7558 1.13393 11.218 1.3117L14.679 2.6427C14.7733 2.67908 14.8543 2.74318 14.9115 2.82655C14.9686 2.90992 14.9991 3.00864 14.999 3.1097V10.8897C14.9989 10.9906 14.9683 11.0891 14.9112 11.1723C14.8541 11.2554 14.7731 11.3194 14.679 11.3557L11.999 12.3867V12.8897C11.999 13.0937 11.975 13.2937 11.927 13.4857L15.038 12.2897C15.3211 12.1809 15.5645 11.9889 15.7363 11.739C15.908 11.4891 16 11.1929 16 10.8897V3.1087C16 2.80545 15.908 2.50933 15.7363 2.2594C15.5645 2.00947 15.3211 1.81746 15.038 1.7087L11.577 0.378698ZM14.091 3.2937C14.0434 3.17 13.9486 3.07028 13.8274 3.01647C13.7063 2.96265 13.5687 2.95914 13.445 3.0067L10.679 4.0707C10.5635 4.11514 10.4355 4.11514 10.32 4.0707L7.554 3.0067C7.49235 2.98118 7.42623 2.96827 7.35951 2.9687C7.29279 2.96914 7.22684 2.98292 7.16553 3.00924C7.10423 3.03556 7.04881 3.07389 7.00254 3.12196C6.95628 3.17003 6.9201 3.22687 6.89614 3.28913C6.87218 3.3514 6.86093 3.41783 6.86304 3.48452C6.86515 3.5512 6.88059 3.61679 6.90844 3.67741C6.93629 3.73804 6.97599 3.79248 7.0252 3.83752C7.07442 3.88257 7.13215 3.91731 7.195 3.9397L9.961 5.0037C10.3076 5.13702 10.6914 5.13702 11.038 5.0037L13.804 3.9397C13.9277 3.89206 14.0274 3.79725 14.0812 3.67611C14.135 3.55497 14.1386 3.41742 14.091 3.2937ZM9.091 8.2937C9.04336 8.17 8.94855 8.07028 8.82741 8.01647C8.70628 7.96265 8.56873 7.95914 8.445 8.0067L5.5 9.1397L2.554 8.0067C2.43014 7.95909 2.29245 7.96264 2.17121 8.01655C2.04996 8.07047 1.95511 8.17034 1.9075 8.2942C1.85989 8.41805 1.86344 8.55575 1.91736 8.67699C1.97127 8.79823 2.07114 8.89309 2.195 8.9407L5 10.0187V12.5087C5 12.6413 5.05268 12.7685 5.14645 12.8623C5.24021 12.956 5.36739 13.0087 5.5 13.0087C5.63261 13.0087 5.75979 12.956 5.85355 12.8623C5.94732 12.7685 6 12.6413 6 12.5087V10.0187L8.804 8.9397C8.9277 8.89206 9.02741 8.79725 9.08123 8.67611C9.13505 8.55497 9.13856 8.41743 9.091 8.2937ZM6.577 5.3787C5.88376 5.11205 5.11624 5.11205 4.423 5.3787L0.962 6.7087C0.678928 6.81746 0.435469 7.00947 0.263731 7.2594C0.0919926 7.50933 4.01425e-05 7.80545 0 8.1087V12.8887C4.01425e-05 13.1919 0.0919926 13.4881 0.263731 13.738C0.435469 13.9879 0.678928 14.1799 0.962 14.2887L4.422 15.6207C5.11554 15.8876 5.88346 15.8876 6.577 15.6207L10.038 14.2897C10.3209 14.1808 10.5641 13.9887 10.7357 13.7388C10.9072 13.4889 10.999 13.1928 10.999 12.8897V8.1097C10.999 7.80657 10.9072 7.51054 10.7357 7.26062C10.5641 7.0107 10.3209 6.81862 10.038 6.7097L6.577 5.3787ZM4.782 6.3117C5.24416 6.13393 5.75584 6.13393 6.218 6.3117L9.679 7.6427C9.77329 7.67908 9.85433 7.74318 9.91146 7.82655C9.96858 7.90991 9.99911 8.00864 9.999 8.1097V12.8897C9.9989 12.9906 9.96829 13.0891 9.91118 13.1723C9.85406 13.2554 9.77313 13.3194 9.679 13.3557L6.218 14.6887C5.75584 14.8665 5.24416 14.8665 4.782 14.6887L1.32 13.3557C1.22603 13.3194 1.14521 13.2556 1.08811 13.1727C1.03101 13.0897 1.0003 12.9914 1 12.8907V8.1107C0.999894 8.00964 1.03042 7.91092 1.08754 7.82755C1.14467 7.74418 1.22571 7.68008 1.32 7.6437L4.782 6.3127V6.3117Z" fill="#0D1C5E"/>
</svg>
