<svg width="22" height="18" viewBox="0 0 22 18" fill="none" xmlns="http://www.w3.org/2000/svg">
<path d="M2.33341 17.6663C1.73758 17.6663 1.22769 17.4544 0.803748 17.0304C0.379081 16.6058 0.166748 16.0955 0.166748 15.4997V2.49967C0.166748 1.90384 0.379081 1.39395 0.803748 0.970008C1.22769 0.545341 1.73758 0.333008 2.33341 0.333008H19.6667C20.2626 0.333008 20.7728 0.545341 21.1975 0.970008C21.6214 1.39395 21.8334 1.90384 21.8334 2.49967V15.4997C21.8334 16.0955 21.6214 16.6058 21.1975 17.0304C20.7728 17.4544 20.2626 17.6663 19.6667 17.6663H2.33341ZM11.0001 10.083L2.33341 4.66634V15.4997H19.6667V4.66634L11.0001 10.083ZM11.0001 7.91634L19.6667 2.49967H2.33341L11.0001 7.91634ZM2.33341 4.66634V2.49967V15.4997V4.66634Z" fill="white"/>
</svg>
