<svg width="25" height="24" viewBox="0 0 25 24" fill="none" xmlns="http://www.w3.org/2000/svg">
<path d="M18.1793 24C8.63696 24 0.873291 16.2363 0.873291 6.69398C0.876899 5.05719 1.47476 3.4774 2.55573 2.24833C3.63669 1.01925 5.1272 0.224538 6.75013 0.0119337C7.16384 -0.0339382 7.58142 0.0531664 7.94229 0.260616C8.30317 0.468065 8.58858 0.785073 8.75714 1.16567L11.1728 6.80214C11.2981 7.09471 11.3483 7.41394 11.3189 7.73086C11.2896 8.04777 11.1815 8.35233 11.0045 8.61687L9.00952 11.6695C9.9129 13.5028 11.4014 14.9829 13.2399 15.8758L16.2564 13.8688C16.5207 13.6906 16.826 13.5828 17.1435 13.5555C17.4611 13.5281 17.7803 13.5822 18.0711 13.7125L23.7076 16.1161C24.0882 16.2847 24.4052 16.5701 24.6127 16.931C24.8201 17.2919 24.9072 17.7094 24.8614 18.1232C24.6488 19.7461 23.854 21.2366 22.625 22.3176C21.3959 23.3985 19.8161 23.9964 18.1793 24ZM6.99049 1.92281C5.83068 2.0719 4.76499 2.63862 3.99293 3.51686C3.22088 4.3951 2.79541 5.52463 2.79618 6.69398C2.79936 10.7729 4.4211 14.6838 7.30531 17.568C10.1895 20.4522 14.1004 22.0739 18.1793 22.0771C19.3487 22.0779 20.4782 21.6524 21.3564 20.8804C22.2347 20.1083 22.8014 19.0426 22.9505 17.8828L17.314 15.4792L14.3095 17.4862C14.033 17.669 13.714 17.7772 13.3835 17.8003C13.0529 17.8235 12.7219 17.7608 12.4227 17.6184C10.1836 16.5353 8.37248 14.7326 7.27892 12.4987C7.13474 12.2005 7.07004 11.8701 7.0911 11.5395C7.11215 11.2089 7.21825 10.8894 7.3991 10.6119L9.40612 7.55928L6.99049 1.92281Z" fill="#1C2237"/>
</svg>
