<svg width="16" height="20" viewBox="0 0 16 20" fill="none" xmlns="http://www.w3.org/2000/svg">
<path d="M9.86193e-07 14V4.50001C9.86193e-07 3.61667 0.229335 2.91234 0.688001 2.38701C1.14667 1.86167 1.75067 1.46167 2.5 1.18701C3.25 0.912341 4.10433 0.729007 5.063 0.637007C6.02167 0.545007 7.00067 0.499341 8 0.500007C9.1 0.500007 10.1377 0.546007 11.113 0.638007C12.0883 0.730007 12.9383 0.913341 13.663 1.18801C14.3877 1.46267 14.9583 1.86267 15.375 2.38801C15.7917 2.91334 16 3.61734 16 4.50001V14C16 14.9833 15.6627 15.8127 14.988 16.488C14.3133 17.1633 13.484 17.5007 12.5 17.5L14 19V19.5H12L10 17.5H6L4 19.5H2V19L3.5 17.5C2.51667 17.5 1.68733 17.1627 1.012 16.488C0.336668 15.8133 -0.00066568 14.984 9.86193e-07 14ZM2 8.50001H7V5.50001H2V8.50001ZM9 8.50001H14V5.50001H9V8.50001ZM4.5 14.5C4.93333 14.5 5.29167 14.3583 5.575 14.075C5.85833 13.7917 6 13.4333 6 13C6 12.5667 5.85833 12.2083 5.575 11.925C5.29167 11.6417 4.93333 11.5 4.5 11.5C4.06667 11.5 3.70833 11.6417 3.425 11.925C3.14167 12.2083 3 12.5667 3 13C3 13.4333 3.14167 13.7917 3.425 14.075C3.70833 14.3583 4.06667 14.5 4.5 14.5ZM11.5 14.5C11.9333 14.5 12.2917 14.3583 12.575 14.075C12.8583 13.7917 13 13.4333 13 13C13 12.5667 12.8583 12.2083 12.575 11.925C12.2917 11.6417 11.9333 11.5 11.5 11.5C11.0667 11.5 10.7083 11.6417 10.425 11.925C10.1417 12.2083 10 12.5667 10 13C10 13.4333 10.1417 13.7917 10.425 14.075C10.7083 14.3583 11.0667 14.5 11.5 14.5Z" fill="#0D1C5E"/>
</svg>
