<svg width="224" height="211" fill="none" xmlns="http://www.w3.org/2000/svg"><circle cx="107" cy="105.5" r="105.5" fill="#fff"/><path d="M223 164.099c-74.008-29.512-148.004 29.937-222 .436V49.907c73.996 29.5 147.992-29.948 222-.436v114.628z" fill="url(#a)" stroke="#fff" stroke-linecap="round" stroke-linejoin="round"/><path d="M210.847 76.753c-10.596-2.807-19.175-11.938-19.175-22.5 0-.516 0-1.02.081-1.536-52.52-5.327-105.04 20.943-157.549 16.04 0 .504.08 1.02.08 1.546 0 10.472-8.59 18.468-19.174 15.753A19.69 19.69 0 0 1 13 85.38v49.471a30.41 30.41 0 0 1 2.11.446c10.585 2.704 19.175 11.778 19.175 22.341a18.6 18.6 0 0 1-.38 3.712c52.715 5.075 105.432-21.413 158.136-15.936a19.675 19.675 0 0 1-.369-3.781c0-10.483 8.579-18.411 19.175-15.604.38.103.749.24 1.153.366v-49.39c-.461-.08-.83-.149-1.153-.252z" fill="#fff" stroke="#fff" stroke-linecap="round" stroke-linejoin="round"/><path d="M134.57 101.941c0 13.21-10.73 25.8-24 28.55s-24-6.15-24-19.43 10.74-25.79 24-28.55c13.26-2.76 24 6.15 24 19.43z" fill="url(#b)" stroke="#fff" stroke-linecap="round" stroke-linejoin="round"/><path d="M171.48 166.792a87.943 87.943 0 0 1-101.53 20.53l4.71-7.43-26.34-1.1 12.21 23.36 4.81-7.571a96.467 96.467 0 0 0 112.48-22l-6.34-5.789zM148.64 30.221l-5.19 7 26.21 2.92-10.58-24.1-5.33 7.25A96.462 96.462 0 0 0 33.2 44.911l6.49 5.54a87.91 87.91 0 0 1 109-20.23h-.05z" fill="#1C2237"/><defs><linearGradient id="a" x1="109.727" y1="38.578" x2="112.751" y2="188.099" gradientUnits="userSpaceOnUse"><stop stop-color="#1C2237"/><stop offset=".484" stop-color="#2E355D"/><stop offset="1" stop-color="#444D8E"/></linearGradient><linearGradient id="b" x1="110.079" y1="81.11" x2="112.003" y2="136.549" gradientUnits="userSpaceOnUse"><stop stop-color="#1C2237"/><stop offset=".484" stop-color="#2E355D"/><stop offset="1" stop-color="#444D8E"/></linearGradient></defs></svg>