<svg width="225" height="261" fill="none" xmlns="http://www.w3.org/2000/svg"><circle cx="119.5" cy="152.5" r="105.5" fill="#fff"/><path d="M109.901 23.06 10.504 42.415a6.368 6.368 0 0 0-5.034 7.468l25.878 132.905a6.367 6.367 0 0 0 7.469 5.034l99.396-19.353a6.369 6.369 0 0 0 5.034-7.468L117.369 28.095a6.368 6.368 0 0 0-7.468-5.034z" fill="#263238"/><path d="M112.477 31.485 11.283 51.188l25.294 129.91 101.194-19.704-25.294-129.91z" fill="#fff" stroke="#263238" stroke-linecap="round" stroke-linejoin="round"/><path d="m45.117 64.791 41.1-8.003M31.666 96.438a6.93 6.93 0 1 0-2.649-13.604 6.93 6.93 0 0 0 2.65 13.604zM40.367 88.273l69.435-13.52" stroke="#263238" stroke-linecap="round" stroke-linejoin="round"/><path d="m27.175 88.492 3.322 3.469 6.122-12.368" stroke="url(#a)" stroke-width="4" stroke-linecap="round" stroke-linejoin="round"/><path d="M36.449 112.679a6.93 6.93 0 1 0-5.704-12.633 6.93 6.93 0 0 0 5.704 12.633zM43.623 104.995l69.435-13.52" stroke="#263238" stroke-linecap="round" stroke-linejoin="round"/><path d="m30.43 105.209 3.323 3.474 6.12-12.374" stroke="url(#b)" stroke-width="4" stroke-linecap="round" stroke-linejoin="round"/><path d="M39.702 129.4a6.93 6.93 0 1 0-5.704-12.633 6.93 6.93 0 0 0 5.704 12.633zM46.88 121.718l69.434-13.52" stroke="#263238" stroke-linecap="round" stroke-linejoin="round"/><path d="m33.686 121.931 3.322 3.469 6.122-12.368" stroke="url(#c)" stroke-width="4" stroke-linecap="round" stroke-linejoin="round"/><path d="M45.853 143.672a6.93 6.93 0 1 0-11.493-7.747 6.93 6.93 0 0 0 11.493 7.747zM50.134 138.435l69.435-13.52" stroke="#263238" stroke-linecap="round" stroke-linejoin="round"/><path d="m36.942 138.654 3.322 3.469 6.122-12.368" stroke="url(#d)" stroke-width="4" stroke-linecap="round" stroke-linejoin="round"/><path d="M44.69 163.323a6.93 6.93 0 1 0-2.65-13.605 6.93 6.93 0 0 0 2.65 13.605zM53.39 155.157l69.435-13.519" stroke="#263238" stroke-linecap="round" stroke-linejoin="round"/><path d="m40.197 155.371 3.324 3.474 6.12-12.373" stroke="url(#e)" stroke-width="4" stroke-linecap="round" stroke-linejoin="round"/><path d="M72.962 27.204a2.787 2.787 0 0 1-3.063-3.806 9.765 9.765 0 1 0-16.137 3.296 2.754 2.754 0 0 1-1.525 4.573l-16.67 3.246 7.027 12.065 45.067-8.775 1.987-13.82-16.686 3.221zm-11.436-3.48a3.42 3.42 0 1 1-1.317-6.712 3.42 3.42 0 0 1 1.317 6.712z" fill="#fff" stroke="#263238" stroke-linecap="round" stroke-linejoin="round"/><mask id="f" style="mask-type:alpha" maskUnits="userSpaceOnUse" x="13" y="50" width="211" height="211"><circle cx="118.5" cy="155.5" r="105.5" fill="#fff"/></mask><g mask="url(#f)" stroke="#263238" stroke-linecap="round" stroke-linejoin="round"><path d="M138.388 265.539h71.982v-64.448h-71.982v64.448z" fill="url(#g)"/><path d="M138.394 265.539h23.178v-64.448h-23.178v64.448z" fill="#263238"/><path d="M146.874 218.67h6.218v-17.579h-6.218v17.579z" fill="#fff"/><path d="M195.432 214.394h10.721v-6.57h-10.721v6.57z"/><path d="M87.582 265.539h71.982v-64.448H87.582v64.448z" fill="url(#h)"/><path d="M87.588 265.539h23.177v-64.448H87.588v64.448z" fill="#263238"/><path d="M96.068 218.67h6.218v-17.579h-6.218v17.579z" fill="#fff"/><path d="M144.071 214.394h10.722v-6.57h-10.722v6.57z"/><path d="M36 265.539h71.982v-64.448H36v64.448z" fill="url(#i)"/><path d="M36 265.539h23.177v-64.448H36v64.448z" fill="#263238"/><path d="M44.48 218.67h6.218v-17.579H44.48v17.579z" fill="#fff"/><path d="M93.578 214.394H104.3v-6.57H93.578v6.57z"/><path d="M113.731 201.02h71.982v-64.448h-71.982v64.448z" fill="url(#j)"/><path d="M113.738 201.02h23.177v-64.448h-23.177v64.448z" fill="#263238"/><path d="M122.217 154.144h6.218v-17.579h-6.218v17.579z" fill="#fff"/><path d="M175.722 174.283h7.26v-37.008h-7.26v37.008z"/><path d="M95.384 136.448h71.982V72H95.384v64.448z" fill="url(#k)"/><path d="M95.384 136.448h23.177V72H95.384v64.448z" fill="#263238"/><path d="M103.856 89.578h6.218V72h-6.218v17.578z" fill="#fff"/><path d="M156.696 109.673h7.261V72.665h-7.261v37.008z"/><path d="M61.198 201.02h71.982v-64.448H61.198v64.448z" fill="url(#l)"/><path d="M61.204 201.02h23.178v-64.448H61.204v64.448z" fill="#263238"/><path d="M69.684 154.144h6.218v-17.579h-6.218v17.579z" fill="#fff"/><path d="M121.768 174.283h7.26v-37.008h-7.26v37.008z"/></g><defs><linearGradient id="g" x1="175.116" y1="266.722" x2="172.894" y2="193.757" gradientUnits="userSpaceOnUse"><stop stop-color="#1C2237"/><stop offset=".484" stop-color="#2E355D"/><stop offset="1" stop-color="#444D8E"/></linearGradient><linearGradient id="a" x1="31.086" y1="80.465" x2="33.874" y2="92.573" gradientUnits="userSpaceOnUse"><stop stop-color="#1C2237"/><stop offset=".484" stop-color="#2E355D"/><stop offset="1" stop-color="#444D8E"/></linearGradient><linearGradient id="c" x1="37.597" y1="113.904" x2="40.385" y2="126.012" gradientUnits="userSpaceOnUse"><stop stop-color="#1C2237"/><stop offset=".484" stop-color="#2E355D"/><stop offset="1" stop-color="#444D8E"/></linearGradient><linearGradient id="d" x1="40.853" y1="130.627" x2="43.641" y2="142.735" gradientUnits="userSpaceOnUse"><stop stop-color="#1C2237"/><stop offset=".484" stop-color="#2E355D"/><stop offset="1" stop-color="#444D8E"/></linearGradient><linearGradient id="e" x1="44.108" y1="147.344" x2="46.897" y2="159.458" gradientUnits="userSpaceOnUse"><stop stop-color="#1C2237"/><stop offset=".484" stop-color="#2E355D"/><stop offset="1" stop-color="#444D8E"/></linearGradient><linearGradient id="b" x1="34.341" y1="97.182" x2="37.13" y2="109.295" gradientUnits="userSpaceOnUse"><stop stop-color="#1C2237"/><stop offset=".484" stop-color="#2E355D"/><stop offset="1" stop-color="#444D8E"/></linearGradient><linearGradient id="h" x1="124.31" y1="266.722" x2="122.088" y2="193.757" gradientUnits="userSpaceOnUse"><stop stop-color="#1C2237"/><stop offset=".484" stop-color="#2E355D"/><stop offset="1" stop-color="#444D8E"/></linearGradient><linearGradient id="i" x1="72.728" y1="266.722" x2="70.506" y2="193.757" gradientUnits="userSpaceOnUse"><stop stop-color="#1C2237"/><stop offset=".484" stop-color="#2E355D"/><stop offset="1" stop-color="#444D8E"/></linearGradient><linearGradient id="j" x1="150.459" y1="202.202" x2="148.237" y2="129.238" gradientUnits="userSpaceOnUse"><stop stop-color="#1C2237"/><stop offset=".484" stop-color="#2E355D"/><stop offset="1" stop-color="#444D8E"/></linearGradient><linearGradient id="k" x1="132.112" y1="137.63" x2="129.89" y2="64.666" gradientUnits="userSpaceOnUse"><stop stop-color="#1C2237"/><stop offset=".484" stop-color="#2E355D"/><stop offset="1" stop-color="#444D8E"/></linearGradient><linearGradient id="l" x1="97.926" y1="202.202" x2="95.704" y2="129.238" gradientUnits="userSpaceOnUse"><stop stop-color="#1C2237"/><stop offset=".484" stop-color="#2E355D"/><stop offset="1" stop-color="#444D8E"/></linearGradient></defs></svg>