<svg width="261" height="218" fill="none" xmlns="http://www.w3.org/2000/svg"><circle cx="155.5" cy="105.5" r="105.5" fill="#fff"/><mask id="a" style="mask-type:alpha" maskUnits="userSpaceOnUse" x="0" y="7" width="261" height="211"><ellipse cx="130.5" cy="112.5" rx="130.5" ry="105.5" fill="#fff"/></mask><g mask="url(#a)"><path d="M176.995 89.777h-49.543l-27.716-45.59h49.543l27.716 45.59z" fill="#263238"/><path d="M176.995 90.046h-49.542a.247.247 0 0 1-.219-.124L99.518 44.327a.271.271 0 0 1 .097-.373.264.264 0 0 1 .132-.037h49.543a.253.253 0 0 1 .219.124l27.715 45.595a.266.266 0 0 1 0 .275.266.266 0 0 1-.229.135zm-49.397-.539h48.928l-27.393-45.05h-48.938l27.403 45.05z" fill="#263238"/><path d="M120.558 88.213H69.78v46.399h50.778V88.213z" fill="#C7C7C7"/><path d="M120.557 134.881H69.78a.254.254 0 0 1-.185-.079.273.273 0 0 1-.076-.19V88.213c0-.071.027-.14.076-.19a.256.256 0 0 1 .185-.08h50.777c.069 0 .136.029.185.08.048.05.076.119.076.19v46.399c0 .071-.028.14-.076.19a.257.257 0 0 1-.185.079zm-50.517-.539h50.257v-45.86H70.04v45.86z" fill="#263238"/><path d="M171.335 134.612h-50.778V88.213l25.814-42.463 24.964 42.463v46.399z" fill="#fff"/><path d="M171.335 134.881h-50.778a.254.254 0 0 1-.184-.079.272.272 0 0 1-.076-.19V88.213c0-.051.014-.102.041-.145l25.814-42.458a.259.259 0 0 1 .219-.13.25.25 0 0 1 .219.13l24.969 42.474c.025.042.038.09.037.14v46.388c0 .071-.028.14-.077.19a.254.254 0 0 1-.184.079zm-50.517-.539h50.256V88.289l-24.708-42.026-25.538 42.026-.01 46.053z" fill="#263238"/><path d="M131.559 96.527h-5.076v15.759h5.076v-15.76z" fill="#C7C7C7"/><path d="M131.559 112.556h-5.076a.258.258 0 0 1-.184-.079.274.274 0 0 1-.076-.191v-15.76c0-.07.027-.14.076-.19a.256.256 0 0 1 .184-.079h5.076c.07 0 .136.029.185.08.049.05.076.118.076.19v15.759c0 .072-.027.14-.076.191a.259.259 0 0 1-.185.079zm-4.815-.54h4.555v-15.22h-4.555v15.22z" fill="#263238"/><path d="M136.636 96.527h-5.077v15.759h5.077v-15.76z" fill="#263238"/><path d="M136.641 112.556h-5.082a.258.258 0 0 1-.184-.079.274.274 0 0 1-.076-.191v-15.76a.276.276 0 0 1 .078-.188.26.26 0 0 1 .182-.08h5.082c.069 0 .134.03.183.08a.28.28 0 0 1 .077.189v15.759c0 .072-.027.14-.076.191a.258.258 0 0 1-.184.079zm-4.821-.54h4.56v-15.22h-4.56v15.22z" fill="#263238"/><path d="M141.717 96.527h-5.076v15.759h5.076v-15.76z" fill="#C7C7C7"/><path d="M141.717 112.556h-5.077a.258.258 0 0 1-.184-.079.274.274 0 0 1-.076-.191v-15.76c0-.07.027-.14.076-.19a.256.256 0 0 1 .184-.079h5.077c.069 0 .135.029.184.08.049.05.076.118.076.19v15.759c0 .072-.027.14-.076.191a.258.258 0 0 1-.184.079zm-4.816-.54h4.555v-15.22h-4.555v15.22z" fill="#263238"/><path d="M108.289 96.527h-4.232v15.759h4.232v-15.76z" fill="#919191"/><path d="M108.289 112.556h-4.232a.258.258 0 0 1-.184-.079.274.274 0 0 1-.076-.191v-15.76c0-.07.027-.14.076-.19a.256.256 0 0 1 .184-.079h4.232c.069 0 .136.029.184.08.049.05.077.118.077.19v15.759c0 .072-.028.14-.077.191a.257.257 0 0 1-.184.079zm-3.971-.54h3.695v-15.22h-3.711l.016 15.22z" fill="#263238"/><path d="M112.521 96.527h-4.232v15.759h4.232v-15.76z" fill="#263238"/><path d="M112.521 112.556h-4.232a.258.258 0 0 1-.184-.079.274.274 0 0 1-.076-.191v-15.76c0-.07.027-.14.076-.19a.256.256 0 0 1 .184-.079h4.232c.069.002.134.03.183.08.048.051.076.119.078.19v15.759c0 .072-.028.14-.077.191a.258.258 0 0 1-.184.079zm-3.971-.54h3.71v-15.22h-3.726l.016 15.22z" fill="#263238"/><path d="M116.753 96.527h-4.232v15.759h4.232v-15.76z" fill="#919191"/><path d="M116.753 112.556h-4.232a.258.258 0 0 1-.184-.079.275.275 0 0 1-.077-.191v-15.76c0-.07.028-.14.077-.19a.256.256 0 0 1 .184-.079h4.232c.069.002.134.03.183.08.048.051.076.119.078.19v15.759c0 .072-.028.14-.077.191a.258.258 0 0 1-.184.079zm-3.971-.54h3.71v-15.22h-3.71v15.22z" fill="#263238"/><path d="M76.977 96.527h-4.232v15.759h4.232v-15.76z" fill="#919191"/><path d="M76.977 112.556h-4.232a.259.259 0 0 1-.184-.079.275.275 0 0 1-.077-.191v-15.76c0-.07.028-.14.077-.19a.256.256 0 0 1 .184-.079h4.232c.069.002.134.03.183.08a.28.28 0 0 1 .078.19v15.759c0 .072-.028.14-.077.191a.258.258 0 0 1-.184.079zm-3.972-.54h3.737v-15.22h-3.71l-.026 15.22z" fill="#263238"/><path d="M81.21 96.527h-4.233v15.759h4.232v-15.76z" fill="#263238"/><path d="M81.209 112.556h-4.232a.259.259 0 0 1-.184-.079.275.275 0 0 1-.077-.191v-15.76c0-.07.028-.14.077-.19a.256.256 0 0 1 .184-.079h4.232c.069.002.134.03.183.08a.28.28 0 0 1 .077.19v15.759c0 .072-.027.14-.076.191a.259.259 0 0 1-.184.079zm-3.972-.54h3.711v-15.22h-3.684l-.026 15.22z" fill="#263238"/><path d="M85.44 96.527H81.21v15.759h4.232v-15.76z" fill="#919191"/><path d="M85.441 112.556h-4.232a.259.259 0 0 1-.184-.079.275.275 0 0 1-.077-.191v-15.76c0-.07.028-.14.077-.19a.256.256 0 0 1 .184-.079h4.232c.069.002.134.03.183.08a.28.28 0 0 1 .078.19v15.759c0 .072-.028.14-.077.191a.258.258 0 0 1-.184.079zm-3.971-.54h3.71v-15.22h-3.71v15.22z" fill="#263238"/><path d="M157.373 96.527h-5.076v15.759h5.076v-15.76z" fill="#C7C7C7"/><path d="M157.373 112.556h-5.061a.258.258 0 0 1-.184-.079.274.274 0 0 1-.076-.191v-15.76c0-.07.027-.14.076-.19a.256.256 0 0 1 .184-.079h5.077c.069 0 .135.029.184.08.049.05.076.118.076.19v15.759a.28.28 0 0 1-.082.197.265.265 0 0 1-.194.073zm-4.816-.54h4.555v-15.22h-4.555v15.22z" fill="#263238"/><path d="M162.449 96.527h-5.076v15.759h5.076v-15.76z" fill="#263238"/><path d="M162.449 112.556h-5.076a.258.258 0 0 1-.184-.079.275.275 0 0 1-.077-.191v-15.76c0-.07.028-.14.077-.19a.256.256 0 0 1 .184-.079h5.076c.069 0 .135.029.184.08.049.05.077.118.077.19v15.759c0 .072-.028.14-.077.191a.258.258 0 0 1-.184.079zm-4.816-.54h4.582v-15.22h-4.555l-.027 15.22z" fill="#263238"/><path d="M167.525 96.527h-5.076v15.759h5.076v-15.76z" fill="#C7C7C7"/><path d="M167.531 112.556h-5.082a.258.258 0 0 1-.184-.079.274.274 0 0 1-.076-.191v-15.76a.276.276 0 0 1 .078-.188.26.26 0 0 1 .182-.08h5.082c.068 0 .134.03.183.08a.28.28 0 0 1 .077.189v15.759c0 .072-.027.14-.076.191a.258.258 0 0 1-.184.079zm-4.821-.54h4.56v-15.22h-4.534l-.026 15.22z" fill="#263238"/><path d="M145.527 70.702h-3.388v9.629h3.388V70.7z" fill="#C7C7C7"/><path d="M145.537 80.6h-3.387a.256.256 0 0 1-.185-.079.273.273 0 0 1-.076-.19V70.7c0-.07.027-.14.076-.19a.256.256 0 0 1 .185-.079h3.387c.069 0 .136.028.184.08.049.05.077.118.077.19v9.629c0 .071-.028.14-.077.19a.254.254 0 0 1-.184.08zm-3.127-.539h2.867v-9.09h-2.867v9.09z" fill="#263238"/><path d="M148.914 70.702h-3.387v9.629h3.387V70.7z" fill="#263238"/><path d="M148.909 80.6h-3.372a.256.256 0 0 1-.184-.079.273.273 0 0 1-.076-.19V70.7c0-.07.027-.14.076-.19a.256.256 0 0 1 .184-.079h3.383c.069 0 .135.028.184.08.049.05.076.118.076.19v9.629a.273.273 0 0 1-.168.252.255.255 0 0 1-.103.017zm-3.127-.539h2.882v-9.09h-2.861l-.021 9.09z" fill="#263238"/><path d="M152.297 70.702h-3.388v9.629h3.388V70.7z" fill="#C7C7C7"/><path d="M152.312 80.6h-3.387a.258.258 0 0 1-.185-.079.278.278 0 0 1-.076-.19V70.7c0-.07.028-.14.076-.19a.258.258 0 0 1 .185-.079h3.387c.069 0 .136.028.185.08.048.05.076.118.076.19v9.629c0 .071-.028.14-.076.19a.258.258 0 0 1-.185.08zm-3.127-.539h2.867v-9.09h-2.867v9.09z" fill="#263238"/><path d="M66.955 89.777h54.525l27.716-45.59H94.671l-27.716 45.59z" fill="url(#b)"/><path d="M121.48 90.046H66.955a.264.264 0 0 1-.132-.037.276.276 0 0 1-.097-.098.288.288 0 0 1 0-.275l27.737-45.595a.254.254 0 0 1 .093-.092.243.243 0 0 1 .125-.032h54.504a.27.27 0 0 1 .265.272.286.286 0 0 1-.035.138l-27.716 45.595a.265.265 0 0 1-.219.124zm-54.05-.539h53.909l27.388-45.05h-53.91l-27.388 45.05z" fill="#263238"/><path d="M109.524 64.777h-21.53v14.74h21.53v-14.74z" fill="#C7C7C7"/><path d="M109.529 79.792H87.995a.262.262 0 0 1-.183-.08.28.28 0 0 1-.078-.19V64.777a.28.28 0 0 1 .078-.19.262.262 0 0 1 .183-.08h21.534c.069.001.134.03.183.08.049.05.077.119.078.19v14.745a.276.276 0 0 1-.078.19.262.262 0 0 1-.183.08zm-21.274-.54h21.014V65.047H88.255v14.207z" fill="#263238"/><path d="m109.529 64.782 14.88-10.572-14.88 25.312v-14.74z" fill="#fff"/><path d="M109.53 79.792h-.073a.263.263 0 0 1-.136-.097.275.275 0 0 1-.052-.162V64.777a.294.294 0 0 1 .109-.221l14.88-10.568a.254.254 0 0 1 .328 0 .287.287 0 0 1 .042.34l-14.879 25.313a.262.262 0 0 1-.219.15zm.26-14.87v13.635l13.764-23.415-13.764 9.78z" fill="#263238"/><path d="M86.27 65.278h22.551l15.588-11.069h-22.551L86.269 65.28z" fill="url(#c)"/><path d="M108.821 65.548H86.27a.255.255 0 0 1-.155-.052.269.269 0 0 1-.09-.305.274.274 0 0 1 .099-.134l15.588-11.069a.24.24 0 0 1 .146-.048h22.551c.055 0 .109.02.153.054a.27.27 0 0 1 .093.136.28.28 0 0 1-.1.3l-15.583 11.075a.305.305 0 0 1-.151.043zm-21.712-.54h21.634l14.822-10.529h-21.624L87.109 65.01z" fill="#263238"/><path d="M96.657 67.91h-3.388v9.628h3.388V67.91z" fill="#919191"/><path d="M96.651 77.808H93.27a.256.256 0 0 1-.184-.08.275.275 0 0 1-.077-.19V67.91c0-.071.028-.14.077-.19a.256.256 0 0 1 .184-.08h3.382c.07 0 .136.029.184.08.05.05.077.119.077.19v9.63c0 .07-.028.14-.077.19a.256.256 0 0 1-.184.079zm-3.127-.54h2.861v-9.09h-2.86v9.09z" fill="#263238"/><path d="M100.039 67.91h-3.388v9.628h3.388V67.91z" fill="#263238"/><path d="M100.039 77.808h-3.388a.256.256 0 0 1-.184-.08.274.274 0 0 1-.076-.19V67.91c0-.071.027-.14.076-.19a.256.256 0 0 1 .184-.08h3.388c.069 0 .135.029.184.08.049.05.077.119.077.19v9.63c0 .07-.028.14-.077.19a.256.256 0 0 1-.184.079zm-3.127-.54h2.866v-9.09h-2.866v9.09z" fill="#263238"/><path d="M103.426 67.91h-3.387v9.628h3.387V67.91z" fill="#919191"/><path d="M103.421 77.808h-3.382a.256.256 0 0 1-.184-.08.275.275 0 0 1-.077-.19V67.91c0-.071.028-.14.077-.19a.256.256 0 0 1 .184-.08h3.382c.069 0 .136.029.185.08.048.05.076.119.076.19v9.63c0 .07-.028.14-.076.19a.258.258 0 0 1-.185.079zm-3.127-.54h2.862v-9.09h-2.857l-.005 9.09z" fill="#263238"/><path d="M136.073 37.27h-1.897v14.303l1.897-3.16V37.27z" fill="#fff"/><path d="M134.176 51.843h-.068a.264.264 0 0 1-.139-.1.28.28 0 0 1-.054-.165V37.27c0-.072.027-.14.076-.191a.258.258 0 0 1 .185-.079h1.897c.069 0 .135.028.184.079.049.05.076.12.076.19v11.145a.276.276 0 0 1-.041.14l-1.892 3.165a.26.26 0 0 1-.224.124zm.26-14.304v13.09l1.376-2.29V37.554l-1.376-.016z" fill="#263238"/><path d="M134.264 37.27h-5.597v14.303h5.597V37.27z" fill="#C7C7C7"/><path d="M134.264 51.843h-5.597a.254.254 0 0 1-.184-.08.274.274 0 0 1-.077-.19V37.27c0-.072.028-.14.077-.191a.254.254 0 0 1 .184-.079h5.597c.069 0 .136.028.184.079.049.05.077.12.077.19v14.304c0 .072-.028.14-.077.19a.254.254 0 0 1-.184.08zm-5.337-.54h5.077V37.54h-5.077v13.764zM101.691 99.18H88.656v35.432h13.035V99.179z" fill="#263238"/><path d="M101.686 134.881h-13.03a.255.255 0 0 1-.184-.079.273.273 0 0 1-.076-.19V99.179c0-.071.027-.14.076-.19a.257.257 0 0 1 .185-.08h13.029c.069 0 .135.03.184.08.049.05.076.119.076.19v35.433c0 .071-.027.14-.076.19a.254.254 0 0 1-.184.079zm-12.769-.539h12.508V99.449H88.917v34.893z" fill="#263238"/><path d="M100.998 116.852c0-.235-.068-.466-.194-.662a1.163 1.163 0 0 0-.517-.438 1.11 1.11 0 0 0-.666-.068 1.138 1.138 0 0 0-.59.326 1.227 1.227 0 0 0-.25 1.298c.088.218.236.404.425.535a1.124 1.124 0 0 0 1.455-.148c.216-.224.337-.527.337-.843z" fill="#fff"/><path d="M99.846 118.314a1.39 1.39 0 0 1-.79-.245 1.46 1.46 0 0 1-.524-.658 1.516 1.516 0 0 1-.082-.849c.055-.285.19-.546.388-.752.2-.205.452-.345.728-.401.275-.057.561-.027.82.084.259.112.48.301.636.543a1.505 1.505 0 0 1-.177 1.85 1.413 1.413 0 0 1-.458.316 1.365 1.365 0 0 1-.54.112zm0-2.389a.878.878 0 0 0-.5.154.916.916 0 0 0-.332.415.957.957 0 0 0 .191 1.012.871.871 0 0 0 .978.204.904.904 0 0 0 .403-.342.946.946 0 0 0 .151-.516.95.95 0 0 0-.259-.655.894.894 0 0 0-.632-.272z" fill="#263238"/><path d="M67.096 127.198s-10.919-6.178-21.102-7.305c-10.184-1.127-16.094 3.774-16.042 5.898.052 2.125 7.124 2.297 8.469 2.653 1.345.356 9.538-1.99 21.634.987 12.096 2.976 13.65 3.585 13.65 3.585l-6.61-5.818z" fill="#fff"/><path d="M73.699 133.264a.295.295 0 0 1-.094 0c-.068 0-1.74-.658-13.613-3.58a53.044 53.044 0 0 0-19.236-1.078 9.21 9.21 0 0 1-2.408.113 16.235 16.235 0 0 0-1.7-.243c-2.751-.312-6.915-.792-6.962-2.658 0-.711.485-1.579 1.407-2.458 2.45-2.389 7.661-4.545 14.9-3.753 10.127 1.138 21.097 7.295 21.207 7.354l.041.033 6.604 5.796a.28.28 0 0 1 .076.297.265.265 0 0 1-.243.177h.02zm-26.142-5.65a52.59 52.59 0 0 1 12.56 1.531c7.463 1.838 10.913 2.771 12.466 3.235l-5.639-4.939c-.563-.318-11.184-6.178-20.987-7.284-7.088-.798-12.144 1.327-14.515 3.575-.787.749-1.245 1.515-1.235 2.049.031 1.396 4.242 1.881 6.499 2.156.594.053 1.186.138 1.772.254a9.762 9.762 0 0 0 2.225-.13 62.323 62.323 0 0 1 6.854-.447z" fill="#263238"/><path d="M62.53 127.058s-11.393-5.181-21.639-5.418c-10.246-.237-15.718 5.181-15.49 7.305.23 2.124 7.297 1.65 8.658 1.882 1.36.232 9.329-2.847 21.639-.938 12.31 1.908 13.894 2.356 13.894 2.356l-7.062-5.187z" fill="#fff"/><path d="M69.587 132.515h-.068c-.068 0-1.788-.502-13.863-2.351a53.073 53.073 0 0 0-19.257.614 9.225 9.225 0 0 1-2.387.329c-.303-.054-.954-.07-1.715-.091-2.767-.07-6.958-.178-7.156-2.033-.073-.701.35-1.617 1.194-2.572 2.251-2.539 7.255-5.208 14.561-5.03 10.184.232 21.624 5.392 21.739 5.44l.046.027 7.057 5.187c.05.036.087.089.103.15a.278.278 0 0 1-.014.184.281.281 0 0 1-.1.107.265.265 0 0 1-.14.039zm-21.89-3.51c2.69-.008 5.376.191 8.037.593 7.588 1.164 11.101 1.79 12.69 2.097l-6.024-4.421c-.589-.264-11.659-5.16-21.514-5.391-7.13-.178-11.987 2.399-14.166 4.852-.719.814-1.115 1.617-1.042 2.156.146 1.386 4.378 1.499 6.65 1.553.597 0 1.194.032 1.788.097a10.214 10.214 0 0 0 2.205-.323 55.386 55.386 0 0 1 11.398-1.213h-.021z" fill="#263238"/><path d="m208.114 122.697-15.817-4.421s-11.2-9.198-24.709-8.179c-13.509 1.019-25.699 6.47-29.655 9.543-3.955 3.073-8.896 6.135-9.902 6.82-1.006.685-14.499-3.068-21.748 0-7.25 3.068-12.847 9.203-12.847 9.203s-30.645-9.548-38.223-10.907c-7.578-1.358-16.474-.685-22.733 4.087-6.26 4.771-4.92 7.828-1.6 8.513 3.32.685 3.955-2.728 22.076 2.383 18.121 5.111 40.167 18.433 49.063 23.517 8.897 5.084 23.714 12.271 33.616 9.204 9.902-3.068 36.899-13.635 43.158-13.635s26.361 1.364 26.361 1.364l2.96-37.492z" fill="#fff"/><path d="M130.319 173.468c-8.969 0-20.044-5.16-28.425-9.974l-2.507-1.451c-9.725-5.639-29.94-17.349-46.525-22.045-12.977-3.661-16.974-2.928-19.366-2.491a6.582 6.582 0 0 1-2.695.113c-1.6-.334-2.658-1.191-2.908-2.356-.276-1.272.276-3.461 4.456-6.648 5.572-4.248 13.931-5.758 22.932-4.14 7.234 1.305 35.747 10.141 38.097 10.869.834-.879 6.171-6.33 12.826-9.165 5.071-2.157 13.118-1.003 17.923-.324 1.726.248 3.508.496 3.779.351.271-.146.631-.421 1.183-.777 1.965-1.278 5.613-3.644 8.688-6.033 4.227-3.278 16.62-8.599 29.79-9.597 13.029-.981 24.068 7.581 24.85 8.206l15.765 4.416a.254.254 0 0 1 .143.104c.035.052.05.114.045.176l-2.966 37.492a.27.27 0 0 1-.087.184.258.258 0 0 1-.189.064c-.198 0-20.159-1.364-26.34-1.364-4.289 0-18.658 5.095-30.202 9.165-5.279 1.877-9.84 3.494-12.883 4.438a18.21 18.21 0 0 1-5.384.787zm-93.086-36.861c2.939 0 7.593.576 15.765 2.884 16.63 4.691 36.899 16.444 46.645 22.105.917.539 1.756 1.019 2.507 1.445 10.074 5.796 24.047 12.087 33.402 9.165 3.033-.938 7.593-2.555 12.867-4.426 11.581-4.108 25.991-9.22 30.369-9.22 5.816 0 23.76 1.192 26.121 1.348l2.924-37.001-15.604-4.372a.282.282 0 0 1-.094-.049c-.109-.092-11.273-9.133-24.531-8.125-13.061.987-25.335 6.249-29.514 9.489-3.091 2.399-6.776 4.777-8.725 6.055-.547.355-.953.62-1.172.771-.37.258-1.47.118-4.133-.265-4.759-.674-12.717-1.8-17.658.292-7.114 3.008-12.7 9.079-12.758 9.138a.248.248 0 0 1-.266.07c-.307-.092-30.712-9.554-38.186-10.896-8.86-1.617-17.073-.124-22.535 4.038-4.17 3.176-4.451 5.187-4.258 6.098.192.911 1.12 1.655 2.506 1.946a6.102 6.102 0 0 0 2.502-.118 19.13 19.13 0 0 1 3.826-.372z" fill="#263238"/><path d="m199.51 145.244-13.592 13.5 19.231 1.445-5.639-14.945z" fill="#263238"/><path d="m205.149 160.458-19.226-1.445a.268.268 0 0 1-.23-.178.29.29 0 0 1 .068-.285l13.592-13.479a.27.27 0 0 1 .236-.064.271.271 0 0 1 .187.161l5.633 14.945c.016.043.022.088.016.134a.269.269 0 0 1-.047.125.254.254 0 0 1-.229.086zm-18.627-1.941 18.241 1.375-5.352-14.174-12.889 12.799zM95.4 147.842c-2.162 0-3.512-.668-3.97-2.577a12.663 12.663 0 0 1-.096-5.09 12.485 12.485 0 0 1 1.914-4.69.257.257 0 0 1 .355-.035.277.277 0 0 1 .056.364c-.025.038-2.965 4.125-1.724 9.322.719 2.992 3.919 2.464 11.085.981 2.309-.48 3.07-.889 3.737-1.256 1.313-.712 2.178-1.186 12.711-1.342 11.534-.168 23.453-.459 29.832-.615 2.403-.054 3.857-.092 4.112-.092.069 0 .135.029.184.079a.275.275 0 0 1 0 .381.254.254 0 0 1-.184.079c-.25 0-1.782.038-4.102.092-6.394.156-18.298.448-29.831.615-10.424.156-11.237.604-12.483 1.283a11.924 11.924 0 0 1-3.872 1.305c-3.195.657-5.785 1.196-7.724 1.196z" fill="#263238"/><path d="M93.342 147.481H93.3a.254.254 0 0 1-.171-.107.27.27 0 0 1-.048-.2 5.594 5.594 0 0 1 .94-2.135 5.377 5.377 0 0 1 1.713-1.537c.167-.091 3.883-2.07 6.301-2.07a4.457 4.457 0 0 1 2.252.721 4.671 4.671 0 0 1 1.605 1.786 1.322 1.322 0 0 1 0 1.418.263.263 0 0 1-.177.096.254.254 0 0 1-.191-.061.278.278 0 0 1-.034-.38c.131-.162.11-.469-.057-.841a4.17 4.17 0 0 0-1.415-1.56 3.987 3.987 0 0 0-1.972-.64c-2.294 0-6.015 1.984-6.051 2a4.937 4.937 0 0 0-1.531 1.38 5.127 5.127 0 0 0-.856 1.904.274.274 0 0 1-.092.165.259.259 0 0 1-.174.061zM113.819 143.416a.257.257 0 0 1-.185-.079.277.277 0 0 1-.076-.191v-2.9c0-.072.028-.14.076-.191a.26.26 0 0 1 .185-.079c.069 0 .135.029.184.079a.274.274 0 0 1 .076.191v2.9a.273.273 0 0 1-.076.191.254.254 0 0 1-.184.079zM115.361 141.82h-.052a.258.258 0 0 1-.175-.101.282.282 0 0 1-.047-.095.29.29 0 0 1-.007-.106 11.87 11.87 0 0 0-.135-3.957.281.281 0 0 1 .027-.207.263.263 0 0 1 .16-.127.252.252 0 0 1 .197.026.272.272 0 0 1 .121.162c.286 1.37.336 2.781.146 4.168a.271.271 0 0 1-.077.161.252.252 0 0 1-.158.076z" fill="#263238"/><path d="M200.724 115.92h21.248v59.99h-21.248a2.301 2.301 0 0 1-1.655-.709 2.468 2.468 0 0 1-.685-1.712V118.34c0-.642.247-1.257.685-1.711a2.301 2.301 0 0 1 1.655-.709z" fill="url(#d)"/><path d="M221.972 176.179h-21.248a2.566 2.566 0 0 1-1.843-.789 2.747 2.747 0 0 1-.763-1.906V118.34c0-.715.275-1.4.763-1.906a2.566 2.566 0 0 1 1.843-.789h21.248c.069 0 .136.028.184.078.049.051.077.12.077.191v59.996c0 .071-.028.14-.077.191a.256.256 0 0 1-.184.078zm-21.248-59.99c-.553 0-1.083.227-1.474.632a2.194 2.194 0 0 0-.611 1.525v55.143c0 .572.22 1.121.611 1.525.391.405.921.632 1.474.632h20.988v-59.457h-20.988z" fill="#263238"/><path d="M222.149 112.836h37.624v67.759h-37.624c-.471 0-.923-.193-1.256-.538a1.868 1.868 0 0 1-.521-1.3V114.68a1.884 1.884 0 0 1 .519-1.304 1.736 1.736 0 0 1 1.258-.54z" fill="url(#e)"/><path d="M259.773 180.865h-37.624a2.01 2.01 0 0 1-1.442-.617 2.153 2.153 0 0 1-.601-1.491V114.68c.002-.56.218-1.096.601-1.491a2.01 2.01 0 0 1 1.442-.617h37.624c.069 0 .135.028.184.079.049.05.076.119.076.19v67.754c0 .072-.027.14-.076.191a.254.254 0 0 1-.184.079zm-37.624-67.754a1.502 1.502 0 0 0-1.075.458 1.608 1.608 0 0 0-.446 1.111v64.077a1.612 1.612 0 0 0 .446 1.111c.141.146.309.261.493.34.185.079.383.119.582.118h37.363v-67.215h-37.363zM219.189 121.683h-17.537a.257.257 0 0 1-.185-.079.279.279 0 0 1-.076-.191.278.278 0 0 1 .078-.189.26.26 0 0 1 .183-.08h17.537c.069 0 .136.028.184.079a.273.273 0 0 1 0 .381.253.253 0 0 1-.184.079zM218.955 128.805h-17.829a.255.255 0 0 1-.185-.079.274.274 0 0 1 0-.381.259.259 0 0 1 .185-.079h17.829c.069 0 .135.029.184.079a.274.274 0 0 1-.001.38.261.261 0 0 1-.183.08zM212.695 141.745H200.5a.257.257 0 0 1-.184-.079.275.275 0 0 1 0-.381.253.253 0 0 1 .184-.079h12.195c.069 0 .136.028.185.079a.276.276 0 0 1 0 .381.26.26 0 0 1-.185.079zM218.955 141.745h-4.071a.258.258 0 0 1-.184-.079.274.274 0 0 1 .002-.38.259.259 0 0 1 .182-.08h4.071c.068.001.134.03.183.08a.274.274 0 0 1 .001.38.258.258 0 0 1-.184.079z" fill="#263238"/></g><defs><linearGradient id="b" x1="107.233" y1="43.35" x2="108.207" y2="94.994" gradientUnits="userSpaceOnUse"><stop stop-color="#1C2237"/><stop offset=".484" stop-color="#2E355D"/><stop offset="1" stop-color="#444D8E"/></linearGradient><linearGradient id="c" x1="104.949" y1="54.006" x2="105.073" y2="66.548" gradientUnits="userSpaceOnUse"><stop stop-color="#1C2237"/><stop offset=".484" stop-color="#2E355D"/><stop offset="1" stop-color="#444D8E"/></linearGradient><linearGradient id="d" x1="209.937" y1="114.819" x2="215.774" y2="182.295" gradientUnits="userSpaceOnUse"><stop stop-color="#1C2237"/><stop offset=".484" stop-color="#2E355D"/><stop offset="1" stop-color="#444D8E"/></linearGradient><linearGradient id="e" x1="239.669" y1="111.593" x2="244.145" y2="188.115" gradientUnits="userSpaceOnUse"><stop stop-color="#1C2237"/><stop offset=".484" stop-color="#2E355D"/><stop offset="1" stop-color="#444D8E"/></linearGradient></defs></svg>