<svg width="281" height="259" viewBox="0 0 281 259" fill="none" xmlns="http://www.w3.org/2000/svg">
<path d="M231.363 47.7358V139.166L227.868 138.734V50.6003C227.867 49.758 227.679 48.9266 227.317 48.1658C226.956 47.405 226.43 46.7339 225.778 46.2008C220.673 42.048 207.625 31.995 203.034 33.9549C198.73 35.7914 179.638 98.4875 170.277 129.997C167.118 140.618 165.069 147.697 165.069 147.697L160.54 148.506C160.54 148.506 162.595 140.769 165.802 129.229C174.917 96.4591 193.364 33.0914 200.594 29.8089C200.731 29.7467 200.876 29.7074 201.026 29.6925C203.082 29.4937 205.727 30.1996 208.564 31.4262C209.379 31.7757 210.215 32.1663 211.065 32.598C212.436 33.2833 213.861 34.0714 215.259 34.9074C216.006 35.3528 216.753 35.8051 217.493 36.278C218.864 37.1414 220.186 38.0254 221.454 38.8957L222.893 39.8962C224.229 40.8556 225.476 41.7671 226.573 42.5894C227.669 43.4117 228.457 44.0285 229.184 44.5972L230.198 45.399C230.525 45.6583 230.793 45.9843 230.985 46.3553C231.176 46.7263 231.287 47.1339 231.308 47.5508C231.333 47.6104 231.351 47.6724 231.363 47.7358Z" fill="#3A477C" stroke="#263238" stroke-width="0.685278" stroke-miterlimit="10"/>
<path d="M235.05 27.1564L208.605 31.4188L201.752 32.5221C201.656 32.5286 201.56 32.5286 201.464 32.5221C201.094 32.5359 200.73 32.4214 200.434 32.1979C200.138 31.9744 199.928 31.6557 199.84 31.2955C199.788 30.998 199.831 30.6917 199.962 30.4199C200.094 30.1481 200.308 29.9246 200.573 29.781C200.752 29.6792 200.947 29.6096 201.149 29.5754L234.433 24.2166C234.846 24.1312 235.275 24.2082 235.633 24.4316C235.99 24.6549 236.248 25.0074 236.352 25.4158C236.386 25.6162 236.379 25.8214 236.331 26.019C236.283 26.2166 236.196 26.4024 236.074 26.5651C235.952 26.7279 235.799 26.8643 235.623 26.9659C235.446 27.0675 235.252 27.1323 235.05 27.1564Z" fill="#3A477C" stroke="#263238" stroke-width="0.685278" stroke-miterlimit="10"/>
<path d="M244.055 29.9394L215.273 34.9008L212.066 35.449C211.972 35.4558 211.878 35.4558 211.785 35.449C211.426 35.4473 211.078 35.3225 210.8 35.0956C210.522 34.8686 210.33 34.5532 210.257 34.2018C210.198 33.8752 210.249 33.5382 210.403 33.2441C210.557 32.9501 210.804 32.7156 211.106 32.5777C211.243 32.5095 211.388 32.461 211.538 32.4338L243.493 26.9516C243.899 26.8728 244.319 26.9575 244.663 27.1872C245.007 27.4169 245.246 27.773 245.329 28.1782C245.363 28.3778 245.357 28.5822 245.311 28.7794C245.266 28.9767 245.181 29.1627 245.062 29.3268C244.943 29.4908 244.793 29.6295 244.62 29.7347C244.447 29.8399 244.255 29.9095 244.055 29.9394Z" fill="#3A477C" stroke="#263238" stroke-width="0.685278" stroke-miterlimit="10"/>
<path d="M250.838 33.5161L221.495 38.8749L218.199 39.478C218.105 39.4881 218.011 39.4881 217.918 39.478C217.533 39.476 217.162 39.3369 216.87 39.0857C216.579 38.8345 216.387 38.4876 216.328 38.1074C216.249 37.6977 216.33 37.2733 216.554 36.9215C216.778 36.5697 217.129 36.3172 217.534 36.2161H217.63L250.27 30.2541C250.48 30.2178 250.696 30.2233 250.905 30.2705C251.113 30.3177 251.31 30.4056 251.485 30.5291C251.659 30.6526 251.807 30.8093 251.921 30.9903C252.035 31.1712 252.112 31.3728 252.147 31.5836C252.23 32.0134 252.138 32.4583 251.893 32.8207C251.647 33.183 251.268 33.4331 250.838 33.5161Z" fill="#3A477C" stroke="#263238" stroke-width="0.685278" stroke-miterlimit="10"/>
<path d="M257.15 37.1001L226.614 42.5823L223.722 43.0963C223.624 43.1064 223.525 43.1064 223.428 43.0963C223.035 43.0911 222.657 42.9467 222.36 42.6888C222.064 42.431 221.869 42.0763 221.81 41.6881C221.751 41.2999 221.831 40.9032 222.037 40.5688C222.243 40.2343 222.561 39.9838 222.934 39.8617C223.001 39.8386 223.07 39.8225 223.14 39.8138L256.568 33.8176C256.786 33.7686 257.012 33.7643 257.232 33.805C257.453 33.8457 257.662 33.9307 257.849 34.0546C258.035 34.1786 258.195 34.339 258.318 34.5263C258.44 34.7136 258.524 34.9237 258.563 35.1442C258.603 35.3646 258.597 35.5908 258.547 35.809C258.496 36.0271 258.402 36.2329 258.27 36.4137C258.138 36.5946 257.971 36.7468 257.778 36.8612C257.586 36.9756 257.372 37.0499 257.15 37.0795V37.1001Z" fill="#3A477C" stroke="#263238" stroke-width="0.685278" stroke-miterlimit="10"/>
<path d="M264.318 41.4114C264.105 41.5916 263.847 41.7101 263.571 41.754L231.363 47.5378L230.164 47.7502C230.066 47.757 229.967 47.757 229.869 47.7502C229.487 47.7471 229.118 47.6124 228.825 47.369C228.531 47.1255 228.33 46.7881 228.256 46.4137C228.182 46.0394 228.239 45.6509 228.418 45.3138C228.597 44.9768 228.887 44.7118 229.239 44.5636C229.346 44.5175 229.459 44.4852 229.574 44.4677L263.002 38.4715C263.319 38.4138 263.646 38.4519 263.941 38.5812C264.204 38.6924 264.434 38.8702 264.608 39.097C264.782 39.3238 264.895 39.5919 264.934 39.8751C264.973 40.1583 264.939 40.4468 264.833 40.7125C264.727 40.9782 264.555 41.2119 264.332 41.3908L264.318 41.4114Z" fill="#3A477C" stroke="#263238" stroke-width="0.685278" stroke-miterlimit="10"/>
<path opacity="0.3" d="M263.571 41.7401L231.363 47.5238C231.37 47.5899 231.37 47.6565 231.363 47.7225V96.3773L227.868 101.284V50.6007C227.867 49.7584 227.679 48.927 227.317 48.1662C226.956 47.4055 226.43 46.7343 225.778 46.2012C220.673 42.0484 207.625 31.9954 203.034 33.9553C198.73 35.7919 179.638 98.4879 170.277 129.997L166.385 130.682L165.802 129.216C174.917 96.4458 193.364 33.0782 200.594 29.7957C200.772 29.6939 200.967 29.6243 201.17 29.5901L234.454 24.2312C234.866 24.1459 235.296 24.2229 235.653 24.4462C236.011 24.6696 236.268 25.0221 236.372 25.4305C236.403 25.6319 236.393 25.8376 236.341 26.0348C236.29 26.232 236.199 26.4168 236.074 26.5777C235.949 26.7387 235.792 26.8724 235.614 26.9709C235.436 27.0694 235.239 27.1305 235.036 27.1505L208.591 31.4129C209.407 31.7624 210.243 32.153 211.092 32.5848C211.229 32.5165 211.374 32.468 211.524 32.4408L243.479 26.9586C243.885 26.8798 244.305 26.9645 244.649 27.1942C244.993 27.4239 245.233 27.7801 245.315 28.1853C245.35 28.3854 245.345 28.5905 245.3 28.7885C245.254 28.9865 245.17 29.1734 245.051 29.3382C244.932 29.503 244.782 29.6423 244.608 29.7479C244.435 29.8536 244.242 29.9234 244.041 29.9533L215.259 34.9147C216.006 35.3601 216.753 35.8124 217.493 36.2853H217.589L250.229 30.3233C250.439 30.287 250.655 30.2925 250.863 30.3397C251.072 30.3869 251.269 30.4748 251.443 30.5983C251.618 30.7218 251.766 30.8785 251.88 31.0595C251.994 31.2404 252.071 31.442 252.106 31.6528C252.185 32.0805 252.091 32.5219 251.846 32.8811C251.601 33.2404 251.224 33.4885 250.797 33.5716L221.454 38.9304L222.893 39.9309C222.96 39.9077 223.029 39.8917 223.099 39.883L256.526 33.8868C256.745 33.8377 256.971 33.8335 257.191 33.8742C257.411 33.9149 257.621 33.9998 257.808 34.1238C257.994 34.2478 258.154 34.4082 258.276 34.5955C258.399 34.7827 258.483 34.9929 258.522 35.2134C258.562 35.4338 258.556 35.66 258.505 35.8781C258.455 36.0963 258.361 36.302 258.229 36.4829C258.097 36.6637 257.929 36.816 257.737 36.9304C257.545 37.0448 257.331 37.1191 257.109 37.1487L226.573 42.6309C227.58 43.3847 228.457 44.07 229.184 44.6388C229.291 44.5926 229.404 44.5604 229.52 44.5428L262.947 38.5467C263.264 38.4889 263.591 38.5271 263.886 38.6563C264.037 39.6226 264.16 40.5614 264.277 41.466C264.068 41.6151 263.826 41.7094 263.571 41.7401Z" fill="#4A4A4A"/>
<path d="M275.981 174.725C275.981 174.725 270.979 165.981 259.315 168.907C254.265 169.592 250.263 179.35 250.263 191.267C250.263 203.602 254.566 213.642 259.857 213.669L259.898 213.861C259.898 213.861 269.04 215.917 274.433 211.298C279.826 206.679 275.981 174.725 275.981 174.725Z" fill="#263238"/>
<path d="M271.548 212.257C276.343 212.257 280.23 203.222 280.23 192.076C280.23 180.93 276.343 171.895 271.548 171.895C266.753 171.895 262.865 180.93 262.865 192.076C262.865 203.222 266.753 212.257 271.548 212.257Z" fill="#263238"/>
<path opacity="0.3" d="M271.548 212.257C276.343 212.257 280.23 203.222 280.23 192.076C280.23 180.93 276.343 171.895 271.548 171.895C266.753 171.895 262.865 180.93 262.865 192.076C262.865 203.222 266.753 212.257 271.548 212.257Z" fill="#4A4A4A"/>
<path d="M273.494 190.773C273.494 197.147 271.321 202.307 268.642 202.307C268.307 202.306 267.976 202.229 267.676 202.081C265.469 200.998 263.804 196.352 263.804 190.773C263.804 185.195 265.469 180.556 267.676 179.473C267.976 179.323 268.306 179.243 268.642 179.24C271.321 179.24 273.494 184.407 273.494 190.773Z" fill="white" stroke="#263238" stroke-width="0.685278" stroke-miterlimit="10"/>
<path d="M271.548 190.775C271.548 196.353 269.889 200.999 267.676 202.082C265.469 200.999 263.804 196.353 263.804 190.775C263.804 185.197 265.469 180.557 267.676 179.475C269.889 180.557 271.548 185.204 271.548 190.775Z" fill="white" stroke="#263238" stroke-width="0.685278" stroke-miterlimit="10"/>
<path d="M278.537 160.073C278.537 164.274 278.983 167.837 275.714 169.571C272.445 171.305 266.641 174.032 264.064 187.053C261.755 198.702 264.366 202.608 260.446 203.671C257.397 204.507 234.234 210.126 224.202 212.579L219.59 213.696L194.584 196.948L193.974 196.537L191.199 194.673L193.974 181.721L194.296 180.213L207.467 161.773L230.081 138.98L241.046 132.292C241.046 132.292 267.011 132.614 268.395 134.156C269.78 135.698 270.143 136.534 270.814 142.79C271.486 149.047 270.691 151.528 274.926 152.754C278.592 153.803 278.613 155.4 278.558 158.538C278.551 159.004 278.537 159.518 278.537 160.073Z" fill="#3A477C"/>
<path opacity="0.3" d="M263.804 133.224C263.804 133.224 263.585 133.388 263.578 133.409C261.666 134.937 252.504 139.398 246.953 147.265C241.402 155.132 235.92 165.206 236.037 171.161C237.03 171.823 237.735 172.837 238.01 173.998V178.027C227.594 187.457 220.193 195.694 220.193 195.694L194.584 196.927H193.974V180.645L194.296 180.193L207.467 161.752L230.082 138.96L241.046 132.271C241.046 132.271 255.985 132.463 263.804 133.224Z" fill="#4A4A4A"/>
<path d="M223.044 212.799L259.555 204.007C260.44 203.785 261.228 203.282 261.803 202.574C262.377 201.866 262.707 200.991 262.742 200.08C262.982 194.139 263.941 181.379 267.875 175.958C270.725 172.018 273.651 170.312 275.714 169.571C276.537 169.28 277.25 168.741 277.754 168.028C278.259 167.315 278.53 166.463 278.531 165.59V156.907C278.532 155.925 278.191 154.972 277.565 154.214C276.94 153.456 276.069 152.94 275.104 152.755H274.96C274.067 152.589 273.251 152.139 272.634 151.472C272.016 150.806 271.631 149.958 271.534 149.054L270.218 137.178C270.114 136.201 269.672 135.29 268.967 134.604C268.262 133.919 267.34 133.501 266.36 133.423C258.87 132.834 241.005 131.744 229.684 133.725" stroke="#263238" stroke-width="0.685278" stroke-linecap="round" stroke-linejoin="round"/>
<path d="M258.507 161.752C261.817 159.417 265.249 157.258 268.786 155.283" stroke="#263238" stroke-width="0.685278" stroke-linecap="round" stroke-linejoin="round"/>
<path d="M221.084 194.228C230.745 184.376 241.032 175.158 251.88 166.632" stroke="#263238" stroke-width="0.685278" stroke-linecap="round" stroke-linejoin="round"/>
<path d="M223.571 185.689C223.571 185.689 213.511 167.002 195.53 179.679" stroke="#263238" stroke-width="0.685278" stroke-linecap="round" stroke-linejoin="round"/>
<path d="M237.969 178.193C237.969 178.193 238.853 171.593 233.94 169.825C229.026 168.057 209.551 168.756 209.551 168.756" stroke="#263238" stroke-width="0.685278" stroke-linecap="round" stroke-linejoin="round"/>
<path d="M236.036 171.162C236.036 171.162 236.907 150.604 260.439 135.788" stroke="#263238" stroke-width="0.685278" stroke-linecap="round" stroke-linejoin="round"/>
<path d="M220.57 191.644C220.57 191.644 214.985 181.872 201.944 185.141C196.304 185.936 191.829 196.79 191.829 210.126C191.829 223.934 196.626 235.132 202.581 235.159L202.622 235.378C202.622 235.378 212.847 237.695 218.877 232.514C224.907 227.333 220.57 191.644 220.57 191.644Z" fill="#263238"/>
<path d="M215.615 233.59C220.974 233.59 225.319 223.493 225.319 211.038C225.319 198.582 220.974 188.485 215.615 188.485C210.256 188.485 205.912 198.582 205.912 211.038C205.912 223.493 210.256 233.59 215.615 233.59Z" fill="#222221"/>
<path opacity="0.3" d="M215.615 233.59C220.974 233.59 225.319 223.493 225.319 211.038C225.319 198.582 220.974 188.485 215.615 188.485C210.256 188.485 205.912 198.582 205.912 211.038C205.912 223.493 210.256 233.59 215.615 233.59Z" fill="#4A4A4A"/>
<path d="M217.794 209.578C217.794 216.698 215.362 222.468 212.367 222.468C211.991 222.465 211.62 222.376 211.284 222.207C208.817 221.001 206.96 215.807 206.96 209.578C206.96 203.348 208.817 198.154 211.284 196.948C211.62 196.779 211.991 196.69 212.367 196.688C215.396 196.688 217.794 202.464 217.794 209.578Z" fill="white" stroke="#263238" stroke-width="0.685278" stroke-miterlimit="10"/>
<path d="M215.615 209.579C215.615 215.808 213.758 221.002 211.284 222.209C208.817 221.002 206.96 215.808 206.96 209.579C206.96 203.35 208.817 198.155 211.284 196.949C213.758 198.155 215.615 203.35 215.615 209.579Z" fill="white" stroke="#263238" stroke-width="0.685278" stroke-miterlimit="10"/>
<path opacity="0.1" d="M275.7 169.571C272.425 171.312 266.627 174.032 264.051 187.053C261.741 198.702 264.352 202.608 260.432 203.671C257.383 204.507 234.221 210.126 224.188 212.579L223.564 207.426L256.3 200.313C256.3 200.313 255.128 162.458 278.551 158.511C278.551 158.997 278.551 159.511 278.551 160.066C278.537 164.274 278.983 167.831 275.7 169.571Z" fill="#4A4A4A"/>
<path opacity="0.1" d="M236.036 169.805C236.036 169.805 240.367 172.786 242.649 170.49C244.931 168.194 260.467 157.579 267.669 155.873C267.669 155.873 244.088 172.32 236.482 179.412C236.482 179.412 240.402 177.322 236.482 171.874L236.036 169.805Z" fill="#4A4A4A"/>
<path d="M190.363 104.908C190.363 104.908 191.912 122.088 199.957 126.392C204.163 126.683 208.357 125.673 211.97 123.5C214.759 121.759 220.364 105.333 220.878 103.744L208.715 101.928L206.385 118.326C206.385 118.326 201.06 113.139 197.969 107.931C198.367 105.998 196.537 104.854 196.03 103.182C193.686 95.5956 190.363 104.908 190.363 104.908Z" fill="white" stroke="#263238" stroke-width="0.685278" stroke-linecap="round" stroke-linejoin="round"/>
<path d="M235.269 79.3887C235.269 79.3887 238.695 79.3887 240.121 82.445C240.121 82.445 253.066 87.7628 255.567 91.477C258.068 95.1912 256.937 109.918 253.833 116.263C251.898 120.12 248.677 123.179 244.726 124.912L243.492 130.497L216.581 130.216L213.95 113.324L214.053 105.409L208.612 102.366C208.612 102.366 210.222 89.9625 212.538 88.7975C214.854 87.6326 224.99 83.4729 224.99 83.4729C224.99 83.4729 225.675 81.4171 227.046 80.8346C228.416 80.2521 235.269 79.3887 235.269 79.3887Z" fill="#3A477C"/>
<path d="M254.676 113.482C254.676 113.482 251.373 125.344 249.194 127.66C249.194 127.66 243.335 128.126 238.915 127.043C234.495 125.961 216.301 118.58 214.114 116.319C211.928 114.057 216.047 111.289 216.047 111.289C218.933 112.312 221.876 113.17 224.86 113.859C230.054 115.078 239.127 115.914 241.676 117.429L243.773 110.946C245.665 110.543 247.623 110.562 249.507 111C251.391 111.438 253.156 112.285 254.676 113.482Z" fill="white"/>
<path d="M220.878 60.2839C220.878 60.2839 220.412 63.9296 221.824 70.8372C223.235 77.7448 224.38 79.5471 226.353 79.3415C228.327 79.1359 228.327 80.2529 228.327 80.2529V84.5701C228.327 84.5701 230.294 92.3206 231.493 92.7592C232.692 93.1978 236.208 86.8384 237.064 85.0361C237.921 83.2338 237.928 75.223 237.928 75.223L238.332 68.9115C239.088 68.7699 239.758 68.3355 240.195 67.7029C240.633 67.0703 240.803 66.2905 240.669 65.5331C240.237 62.6961 236.975 58.9339 236.975 58.9339C236.975 58.9339 226.724 56.4875 220.878 60.2839Z" fill="white"/>
<path d="M193.968 126.393C193.968 126.393 209.044 127.297 210.586 129.003C212.127 130.71 211.778 134.801 211.778 134.801L214.889 137.014L209.551 175.267C209.551 175.267 199.635 172.697 193.968 182.969V126.393Z" fill="#263238"/>
<path d="M224.661 64.9365C224.818 65.7285 224.788 66.5464 224.573 67.3246C224.357 68.1028 223.963 68.8198 223.42 69.4182C223.346 69.4871 223.283 69.5682 223.235 69.6581C223.186 69.8051 223.185 69.9639 223.232 70.1116C223.279 70.2593 223.371 70.3885 223.496 70.4804C223.655 70.6227 223.845 70.7275 224.05 70.7871C224.256 70.8467 224.472 70.8595 224.683 70.8247C224.894 70.7899 225.094 70.7083 225.269 70.5858C225.445 70.4634 225.59 70.3033 225.696 70.1172" stroke="#263238" stroke-width="0.685278" stroke-linecap="round" stroke-linejoin="round"/>
<path d="M224.442 63.0861C224.268 62.9471 224.068 62.8439 223.854 62.7824C223.641 62.7209 223.417 62.7024 223.196 62.7279C222.975 62.7534 222.761 62.8224 222.566 62.9309C222.372 63.0394 222.201 63.1854 222.064 63.3602" stroke="#263238" stroke-width="0.685278" stroke-linecap="round" stroke-linejoin="round"/>
<path d="M227.477 62.7158C227.984 62.4774 228.563 62.4396 229.097 62.6099C229.63 62.7802 230.08 63.1461 230.355 63.6341" stroke="#263238" stroke-width="0.685278" stroke-linecap="round" stroke-linejoin="round"/>
<path d="M223.811 65.6765C223.811 66.2727 223.551 66.7524 223.228 66.7524C222.906 66.7524 222.646 66.2727 222.646 65.6765C222.646 65.0803 222.906 64.5938 223.228 64.5938C223.551 64.5938 223.811 65.0803 223.811 65.6765Z" fill="#263238"/>
<path d="M228.197 66.7592C228.519 66.7592 228.779 66.2745 228.779 65.6765C228.779 65.0785 228.519 64.5938 228.197 64.5938C227.875 64.5938 227.615 65.0785 227.615 65.6765C227.615 66.2745 227.875 66.7592 228.197 66.7592Z" fill="#263238"/>
<path d="M225.182 72.886C225.182 72.886 228.643 73.5028 229.568 71.584" stroke="#263238" stroke-width="0.685278" stroke-linecap="round" stroke-linejoin="round"/>
<path d="M222.646 56.1309C222.646 56.1309 219.939 60.407 221.276 67.8697C222.612 75.3323 224.051 78.8341 226.381 79.3207C228.711 79.8072 235.29 76.0519 236.811 74.4415C238.332 72.8311 238.36 68.8907 238.36 68.8907" stroke="#263238" stroke-width="0.685278" stroke-linecap="round" stroke-linejoin="round"/>
<path d="M236.414 65.5326C236.414 65.5326 236.886 62.9011 238.168 62.4625C239.449 62.024 240.69 64.162 240.69 65.5326C240.69 66.9031 239.497 69.2331 237.873 68.911" stroke="#263238" stroke-width="0.685278" stroke-linecap="round" stroke-linejoin="round"/>
<path d="M237.798 62.6608C236.681 63.3156 235.406 63.6521 234.111 63.6339C232.37 63.4489 229.951 60.3788 226.573 60.6529C223.194 60.9271 220.337 63.2227 219.233 62.3045C218.13 61.3862 219.789 58.9123 219.789 58.9123L220.563 57.9324C220.563 57.9324 220.357 55.8354 220.357 54.088C220.357 52.3405 223.16 49.6474 228.937 49.291C234.714 48.9347 237.284 51.1687 238.216 52.1966C238.435 52.4433 240.271 54.5128 240.71 56.459C241.19 58.6656 240.347 61.859 240.141 63.6613C239.25 61.8453 237.798 62.6608 237.798 62.6608Z" fill="#263238"/>
<path d="M222.646 58.0295C222.646 58.0295 227.409 55.1924 232.925 59.2081" stroke="white" stroke-width="0.685278" stroke-linecap="round" stroke-linejoin="round"/>
<path d="M228.348 79.1423V84.5697C228.348 84.5697 230.109 92.2311 231.514 92.7588C232.918 93.2865 236.269 87.0367 236.996 85.3647C237.373 84.4669 237.544 82.37 237.626 80.6088L238.373 68.9111" stroke="#263238" stroke-width="0.685278" stroke-linecap="round" stroke-linejoin="round"/>
<path d="M228.197 80.6084C228.197 80.6084 225.792 80.6975 225.524 82.2805C225.257 83.8635 225.442 90.7299 224.914 91.7853C224.387 92.8406 223.503 93.5464 223.852 93.9028C224.202 94.2591 229.006 90.2366 230.26 90.8807" stroke="#263238" stroke-width="0.685278" stroke-linecap="round" stroke-linejoin="round"/>
<path d="M233.851 90.8538C235.265 91.4216 236.561 92.2464 237.674 93.2865C239.264 94.8695 240.498 93.17 240.052 92.7863C239.607 92.4025 238.997 91.3472 239.703 88.5307C240.409 85.7142 240.251 80.6157 237.647 79.6221" stroke="#263238" stroke-width="0.685278" stroke-linecap="round" stroke-linejoin="round"/>
<path d="M208.543 102.66C209.551 97.1235 211.01 89.7841 212.525 88.7973C214.711 87.3788 225.449 83.4453 225.449 83.4453" stroke="#263238" stroke-width="0.685278" stroke-linecap="round" stroke-linejoin="round"/>
<path d="M212.881 106.156L216.17 128.942L243.458 130.497L244.417 127.852" stroke="#263238" stroke-width="0.685278" stroke-linecap="round" stroke-linejoin="round"/>
<path d="M215.458 112.782L207.296 109.103" stroke="#222221" stroke-width="0.685278" stroke-linecap="round" stroke-linejoin="round"/>
<path d="M211.97 115.359C210.197 110.426 206.818 106.232 202.376 103.449C197.997 100.811 193.248 100.235 188.992 101.832C184.737 103.429 181.53 106.978 179.967 111.844C179.583 113.052 179.31 114.293 179.152 115.551L182.434 115.99C182.56 114.926 182.79 113.877 183.119 112.858C184.367 108.979 186.854 106.163 190.143 104.929C191.337 104.48 192.602 104.248 193.878 104.244C196.28 104.285 198.624 104.984 200.656 106.266C202.497 107.394 204.121 108.842 205.453 110.542C206.881 112.336 208.014 114.346 208.81 116.497C210.461 120.675 210.662 125.287 209.379 129.593C208.132 133.471 205.644 136.288 202.355 137.521C199.595 138.506 196.562 138.391 193.885 137.199V140.735C195.41 141.242 197.006 141.503 198.614 141.51C200.287 141.509 201.947 141.207 203.513 140.619C207.769 139.022 210.976 135.465 212.538 130.6C213.205 128.485 213.542 126.28 213.539 124.062C213.538 121.091 213.007 118.144 211.97 115.359Z" fill="#263238"/>
<path d="M193.803 102.613C193.803 102.613 192.083 114.523 196.297 118.238C200.512 121.952 210.209 116.607 210.209 116.607L211.716 121.013C211.716 121.013 199.224 123.11 200.752 135.644L193.652 136.569V117.415L187.827 116.668C187.827 116.668 188.191 110.754 184.065 107.499C186.903 105.159 190.231 103.489 193.803 102.613Z" fill="#263238"/>
<path d="M214.443 116.97C221.296 119.375 228.313 124.069 234.529 125.967C241.786 128.181 248.755 127.968 249.173 127.66C251.187 123.701 252.852 119.573 254.148 115.325C256.889 105.985 258.424 94.6844 255.587 91.4568C251.88 87.2423 240.141 82.4248 240.141 82.4248" stroke="#263238" stroke-width="0.685278" stroke-linecap="round" stroke-linejoin="round"/>
<path d="M228.348 80.2522C228.348 80.2522 228.512 83.8294 230.26 83.4456C232.007 83.0619 236.866 79.4984 238.092 72.9814C236.973 74.4955 235.522 75.7332 233.85 76.5997C230.965 78.1347 228.916 78.9639 228.916 78.9639L228.348 80.2522Z" fill="#263238"/>
<path d="M215.005 109.048C214.669 107.719 214.066 106.225 212.819 105.916C212.538 105.853 212.25 105.83 211.963 105.848C209.53 105.903 206.96 106.766 205.555 108.753C205.337 109.024 205.204 109.353 205.171 109.699C205.162 109.873 205.213 110.045 205.315 110.186C205.418 110.327 205.565 110.428 205.733 110.474C205.977 110.485 206.217 110.418 206.419 110.282C207.354 109.707 208.355 109.247 209.4 108.911C209.997 108.719 210.639 108.719 211.236 108.911C211.353 109.062 211.545 109.507 211.661 109.658C209.701 109.781 206.391 110.974 205.624 112.954C205.55 113.107 205.528 113.281 205.562 113.448C205.692 113.907 206.35 113.886 206.816 113.77C208.477 113.356 210.168 113.072 211.873 112.92C211.243 113.009 210.626 113.276 210.003 113.372C208.879 113.53 207.611 113.79 207.035 114.743C206.978 114.824 206.939 114.918 206.921 115.016C206.903 115.114 206.907 115.215 206.933 115.312C207.022 115.551 207.316 115.647 207.577 115.682C208.437 115.708 209.298 115.648 210.147 115.503C210.573 115.435 211.009 115.469 211.419 115.604C211.83 115.739 212.202 115.97 212.504 116.278C212.552 117.032 212.538 117.594 212.586 118.334C213.164 118.078 213.68 117.701 214.099 117.228C214.517 116.755 214.829 116.197 215.012 115.593C215.522 113.838 215.606 111.987 215.259 110.193C215.19 109.87 215.108 109.466 215.005 109.048Z" fill="white" stroke="#263238" stroke-width="0.685278" stroke-linecap="round" stroke-linejoin="round"/>
<path d="M241.683 117.429C241.683 117.429 244.603 110.946 244.424 105.148" stroke="#263238" stroke-width="0.685278" stroke-linecap="round" stroke-linejoin="round"/>
<path d="M243.897 130.305C243.897 130.305 248.241 142.77 243.047 151.549C241.08 154.879 218.836 155.283 218.836 155.283L209.551 175.266L199.073 138.487L216.17 128.941L243.897 130.305Z" fill="#263238"/>
<path d="M218.034 154.188L239.223 155.284" stroke="#263238" stroke-width="0.685278" stroke-linecap="round" stroke-linejoin="round"/>
<path d="M215.691 110.953C220.22 112.947 230.458 115.353 233.282 115.613C237.894 116.038 243.383 116.675 245.781 121.246" stroke="#263238" stroke-width="0.685278" stroke-linecap="round" stroke-linejoin="round"/>
<path d="M243.78 110.952C243.78 110.952 248.68 109.643 254.676 113.488" stroke="#263238" stroke-width="0.685278" stroke-linecap="round" stroke-linejoin="round"/>
<g opacity="0.2">
<path d="M225.428 133.286C221.687 134.424 216.191 136.212 210.476 138.487" stroke="white" stroke-width="0.685278" stroke-linecap="round" stroke-linejoin="round"/>
<path d="M221.269 134.142L220.371 131.895" stroke="white" stroke-width="0.685278" stroke-linecap="round" stroke-linejoin="round"/>
</g>
<path d="M214.443 107.451L213.601 99.4131" stroke="#263238" stroke-width="0.685278" stroke-linecap="round" stroke-linejoin="round"/>
<path d="M186.23 102.319C185.34 103.285 184.49 104.464 184.599 105.745C184.601 105.88 184.634 106.013 184.698 106.132C184.761 106.252 184.852 106.354 184.963 106.431C185.127 106.478 185.302 106.476 185.465 106.425C185.628 106.374 185.773 106.276 185.881 106.143C186.314 105.731 186.625 105.206 186.779 104.628C186.936 104.101 187.526 100.921 186.23 102.319Z" fill="white" stroke="#263238" stroke-width="0.685278" stroke-linecap="round" stroke-linejoin="round"/>
<path d="M189.28 103.415C188.799 104.188 188.239 104.91 187.608 105.566C187.583 105.591 187.552 105.61 187.519 105.621C187.484 105.617 187.45 105.602 187.423 105.58C187.237 105.427 187.085 105.237 186.976 105.022C186.866 104.808 186.801 104.573 186.786 104.333C186.761 103.853 186.824 103.372 186.971 102.914C187.19 101.93 187.733 101.047 188.513 100.406C188.653 100.294 188.821 100.221 188.999 100.194C189.192 100.184 189.384 100.226 189.554 100.317C189.838 100.436 190.108 100.583 190.363 100.756C190.079 101.672 189.717 102.561 189.28 103.415Z" fill="white" stroke="#263238" stroke-width="0.685278" stroke-linecap="round" stroke-linejoin="round"/>
<path d="M191.665 98.9121C190.068 99.7481 189.184 102.147 188.992 103.819C188.924 104.381 188.992 105.004 189.677 105.141C190.003 105.175 190.332 105.111 190.622 104.959C190.912 104.807 191.151 104.572 191.308 104.285C191.607 103.706 191.837 103.094 191.994 102.462C192.171 101.83 192.561 101.278 193.097 100.899C193.59 100.57 194.467 100.646 194.611 99.9331C194.899 98.5352 192.419 98.5215 191.665 98.9121Z" fill="white" stroke="#263238" stroke-width="0.685278" stroke-linecap="round" stroke-linejoin="round"/>
<path d="M214.231 105.409L208.577 102.366" stroke="#263238" stroke-width="0.685278" stroke-linecap="round" stroke-linejoin="round"/>
<path d="M191.678 3.37791V116.901L178.651 116.976L173.909 117.936V30.604L173.889 30.6108H173.882L145.511 35.4695L145.196 35.5243L145.669 112.111L131.881 110.679V15.2058L135.445 13.9792L145.196 15.9528L145.258 15.9391L173.553 9.29871L173.587 9.285L173.882 3.03527V3.02157L173.909 2.48705L178.651 1L191.678 3.37791Z" fill="#3A477C"/>
<path opacity="0.3" d="M173.882 30.611L145.971 35.3942L145.511 35.4696L145.258 15.9392L173.553 9.29883L173.841 28.0754L173.882 30.611Z" fill="#4A4A4A"/>
<path opacity="0.2" d="M173.882 30.6107L145.511 35.4693L145.552 33.2353L173.841 28.0752L173.882 30.6107Z" fill="#4A4A4A"/>
<path opacity="0.2" d="M135.445 13.9795V111.056L131.881 110.679V15.2061L135.445 13.9795Z" fill="#4A4A4A"/>
<path opacity="0.2" d="M178.651 1V116.976L173.909 117.936L173.889 30.6108L173.882 3.03527V3.02157L173.909 2.48705L178.651 1Z" fill="#4A4A4A"/>
<path d="M191.679 117.531V3.37791L178.658 1L173.909 2.48705V118.662" stroke="#263238" stroke-width="0.685278" stroke-linecap="round" stroke-linejoin="round"/>
<path d="M178.658 1V117.936" stroke="#263238" stroke-width="0.685278" stroke-linecap="round" stroke-linejoin="round"/>
<path d="M145.669 113.242L145.189 15.9462L135.438 13.9795L131.881 15.213V112.454" stroke="#263238" stroke-width="0.685278" stroke-linecap="round" stroke-linejoin="round"/>
<path d="M135.438 13.9795V114.592" stroke="#263238" stroke-width="0.685278" stroke-linecap="round" stroke-linejoin="round"/>
<path d="M145.189 15.9459L173.909 9.33301" stroke="#263238" stroke-width="0.685278" stroke-linecap="round" stroke-linejoin="round"/>
<path d="M145.258 33.2905L173.909 27.918" stroke="#263238" stroke-width="0.685278" stroke-linecap="round" stroke-linejoin="round"/>
<path d="M145.511 35.469L173.909 30.6035" stroke="#263238" stroke-width="0.685278" stroke-linecap="round" stroke-linejoin="round"/>
<path d="M266.367 133.423V55.6918C266.367 52.9507 266.449 50.1754 266.504 47.4274C266.545 45.2414 266.86 42.7812 265.688 40.8487C263.585 37.3538 259.85 35.0444 256.499 32.8721C250.27 28.8427 243.355 25.3889 236.036 23.9635C226.909 22.1612 193.679 118.402 193.679 118.402L193.967 126.406C193.967 126.406 229.115 26.3551 238.092 27.9312C243.34 28.9407 248.332 30.9937 252.771 33.9685C255.245 35.5584 258.041 36.8741 260.145 38.9574C263.283 42.0617 262.886 46.0294 262.886 50.1V68.5408C262.886 79.5372 262.886 90.5359 262.886 101.537V127.831C262.886 128.105 262.79 132.998 262.886 133.012L266.367 133.423Z" fill="#3A477C" stroke="#263238" stroke-width="0.685278" stroke-miterlimit="10"/>
<path d="M192.994 209.859V233.364L185.717 235.345L161.835 230.678L157.833 231.816V242.938L146.08 245.932L121.54 240.93L118.203 241.807V253.738L102.544 258L80.499 253.566V242.109L77.984 242.026L52.7247 248.386L40.3623 245.603V235.139L34.8184 234.557L13.1225 240.464L5.09106 238.394V216.417L102.544 213.019L108.438 212.813L192.994 209.859Z" fill="#3A477C"/>
<path opacity="0.1" d="M192.994 209.859V233.364L185.717 235.345L161.835 230.678L157.833 231.816V242.938L146.08 245.932L121.54 240.93L118.203 241.807V253.738L102.544 258V213.019L108.438 212.813L192.994 209.859Z" fill="#4A4A4A"/>
<path opacity="0.3" d="M102.544 212.325V257.999L80.499 253.565V242.108L77.984 242.025L52.7247 248.385L40.3623 245.603V235.138L34.8184 234.556L13.1225 240.463L5.09106 238.393V204.28L102.544 212.325Z" fill="#4A4A4A"/>
<path opacity="0.3" d="M54.7668 237.641V248.393L77.9841 242.026L54.7668 237.641Z" fill="#4A4A4A"/>
<path opacity="0.3" d="M146.08 234.468V245.932L121.54 240.93L146.08 234.468Z" fill="#4A4A4A"/>
<path opacity="0.3" d="M185.717 235.345V223.88L162.26 230.493L185.717 235.345Z" fill="#4A4A4A"/>
<path opacity="0.3" d="M14.6301 230.671L36.4768 234.563L14.6301 240.429V230.671Z" fill="#4A4A4A"/>
<path d="M193.967 117.442V213.162L102.544 233.103L1 220.213V117.442L102.544 107.931L193.967 117.442Z" fill="white"/>
<path opacity="0.1" d="M92.3613 119.882L103.031 119.114L112.728 119.882V125.247L103.031 124.439L92.3613 125.467V119.882Z" fill="#4A4A4A"/>
<path d="M1 117.442V220.213L102.544 233.097L193.967 213.155V117.442L102.544 107.931L1 117.442Z" stroke="#263238" stroke-width="0.685278" stroke-linecap="round" stroke-linejoin="round"/>
<path d="M102.544 258V233.097V107.931" stroke="#263238" stroke-width="0.685278" stroke-linecap="round" stroke-linejoin="round"/>
<path d="M78.6693 241.793L54.7668 248.392L40.3623 245.603V235.139L14.6301 230.671V240.429L5.09106 238.401V220.734" stroke="#263238" stroke-width="0.685278" stroke-linecap="round" stroke-linejoin="round"/>
<path d="M14.7944 240.464L36.4766 234.563" stroke="#263238" stroke-width="0.685278" stroke-linecap="round" stroke-linejoin="round"/>
<path d="M146.08 245.939V234.468L118.196 241.814V253.738L102.544 258L80.4922 253.566V242.109L54.7668 237.641V248.393" stroke="#263238" stroke-width="0.685278" stroke-linecap="round" stroke-linejoin="round"/>
<path opacity="0.1" d="M102.544 107.931V233.103L1 220.213V117.442L102.544 107.931Z" fill="#4A4A4A"/>
<path d="M121.54 240.929L146.08 245.87L157.833 242.937V231.815L185.717 223.879V235.351L186.984 235.001L192.994 233.364V213.367" stroke="#263238" stroke-width="0.685278" stroke-linecap="round" stroke-linejoin="round"/>
<path d="M185.511 235.44L161.835 230.678" stroke="#263238" stroke-width="0.685278" stroke-linecap="round" stroke-linejoin="round"/>
<path d="M1 149.78L102.544 146.142L193.967 149.78" stroke="#263238" stroke-width="0.685278" stroke-linecap="round" stroke-linejoin="round"/>
<path d="M1 185.607L102.544 191.48L193.967 182.962" stroke="#263238" stroke-width="0.685278" stroke-linecap="round" stroke-linejoin="round"/>
<path d="M155.461 113.44V147.958" stroke="#263238" stroke-width="0.685278" stroke-linecap="round" stroke-linejoin="round"/>
<path d="M143.627 147.958V187.656" stroke="#263238" stroke-width="0.685278" stroke-linecap="round" stroke-linejoin="round"/>
<path d="M173.676 148.972V184.538" stroke="#263238" stroke-width="0.685278" stroke-linecap="round" stroke-linejoin="round"/>
<path d="M154.016 186.689V221.872" stroke="#263238" stroke-width="0.685278" stroke-linecap="round" stroke-linejoin="round"/>
<path d="M62.8738 111.646V189.089" stroke="#263238" stroke-width="0.685278" stroke-linecap="round" stroke-linejoin="round"/>
<path d="M17.0422 115.942V148.973" stroke="#263238" stroke-width="0.685278" stroke-linecap="round" stroke-linejoin="round"/>
<path d="M28.7744 148.787V187.224" stroke="#263238" stroke-width="0.685278" stroke-linecap="round" stroke-linejoin="round"/>
<path d="M43.0691 225.551V187.971" stroke="#263238" stroke-width="0.685278" stroke-linecap="round" stroke-linejoin="round"/>
<path opacity="0.1" d="M1.08911 164.658H9.67564V169.736L1.08911 169.647V164.658Z" fill="#4A4A4A"/>
<path opacity="0.1" d="M136.288 163.767V169.475L151.076 168.721V164.006L136.288 163.767Z" fill="#4A4A4A"/>
<path opacity="0.1" d="M34.9351 203.314V209.139L51.7723 210.832V204.281L34.9351 203.314Z" fill="#4A4A4A"/>
</svg>
