<svg width="99" height="90" fill="none" xmlns="http://www.w3.org/2000/svg"><path d="M83.85 8.245V0H15.144v8.245h7.786l3.14 3.139v42.36h46.86v-42.36l3.133-3.14h7.787z" fill="#0D1C5E"/><path opacity=".6" d="M83.85 8.245V0H15.144v8.245h7.786l3.14 3.139v42.36h46.86v-42.36l3.133-3.14h7.787z" fill="#fff"/><path d="M40.947 2.241h-2.443v4.685h2.443V2.24zM60.49 2.241h-2.443v4.685h2.443V2.24zM31.175 9.668h-2.443v4.684h2.443V9.668zM50.718 9.668h-2.443v4.684h2.443V9.668zM55.604 9.668h-2.443v4.684h2.443V9.668zM65.376 9.668h-2.443v4.684h2.443V9.668zM70.261 9.668H67.82v4.684h2.442V9.668zM40.947 17.1h-2.443v4.684h2.443V17.1zM31.175 24.533h-2.443v4.684h2.443v-4.684zM45.833 24.533H43.39v4.684h2.443v-4.684zM60.49 24.533h-2.443v4.684h2.443v-4.684zM70.261 24.533H67.82v4.684h2.442v-4.684zM36.061 31.96h-2.443v4.683h2.443V31.96zM55.604 31.96h-2.443v4.683h2.443V31.96zM40.947 39.392h-2.443v4.684h2.443v-4.684zM65.376 39.392h-2.443v4.684h2.443v-4.684zM50.718 46.824h-2.443v4.684h2.443v-4.684z" fill="#fff"/><path d="M29.954 38.763H13.03v16.923h16.923V38.763z" fill="#0D1C5E"/><path opacity=".5" d="M28.56 39.679h-5.667a.482.482 0 0 0-.482.482v14.126c0 .267.216.483.482.483h5.668a.483.483 0 0 0 .482-.483V40.161a.482.482 0 0 0-.482-.482z" fill="#fff"/><g opacity=".2" fill="#4A4A4A"><path d="M27.517 42.225H15.474a.61.61 0 0 1 0-1.221h12.043a.61.61 0 0 1 0 1.221zM27.517 45.957H15.474a.61.61 0 1 1 0-1.221h12.043a.61.61 0 1 1 0 1.22zM27.517 49.695H15.474a.61.61 0 1 1 0-1.222h12.043a.61.61 0 1 1 0 1.222zM27.517 53.414H15.474a.61.61 0 1 1 0-1.222h12.043a.61.61 0 1 1 0 1.222z"/></g><path d="M48.495 38.763H31.572v16.923h16.923V38.763z" fill="#0D1C5E"/><path opacity=".5" d="M48.495 38.763H31.572v16.923h16.923V38.763z" fill="#4A4A4A"/><path opacity=".5" d="M47.096 39.679H41.43a.482.482 0 0 0-.483.482v14.126c0 .267.217.483.483.483h5.667a.483.483 0 0 0 .483-.483V40.161a.482.482 0 0 0-.483-.482z" fill="#fff"/><g opacity=".2" fill="#4A4A4A"><path d="M46.052 42.225H34.01a.61.61 0 0 1 0-1.221h12.043a.61.61 0 0 1 0 1.221zM46.052 45.957H34.01a.61.61 0 1 1 0-1.221h12.043a.61.61 0 1 1 0 1.22zM46.052 49.695H34.01a.61.61 0 1 1 0-1.222h12.043a.61.61 0 1 1 0 1.222zM46.052 53.414H34.01a.61.61 0 1 1 0-1.222h12.043a.61.61 0 1 1 0 1.222z"/></g><path d="M67.03 38.763H50.109v16.923H67.03V38.763z" fill="#0D1C5E"/><path opacity=".4" d="M65.638 39.679h-5.667a.482.482 0 0 0-.483.482v14.126c0 .267.216.483.483.483h5.667a.483.483 0 0 0 .483-.483V40.161a.482.482 0 0 0-.483-.482z" fill="#fff"/><g opacity=".2" fill="#4A4A4A"><path d="M64.612 42.225H52.551a.611.611 0 0 1 0-1.221h12.061a.61.61 0 0 1 0 1.221zM64.612 45.957H52.551a.61.61 0 1 1 0-1.221h12.061a.61.61 0 1 1 0 1.22zM64.612 49.695H52.551a.61.61 0 1 1 0-1.222h12.061a.61.61 0 1 1 0 1.222zM64.612 53.414H52.551a.611.611 0 1 1 0-1.222h12.061a.61.61 0 1 1 0 1.222z"/></g><path d="M38.418 20.869H21.495v16.923h16.923V20.868z" fill="#0D1C5E"/><path opacity=".5" d="M37.02 21.784h-5.668a.482.482 0 0 0-.482.483v14.126c0 .266.216.482.482.482h5.668a.482.482 0 0 0 .482-.482V22.267a.482.482 0 0 0-.482-.483z" fill="#fff"/><g opacity=".2" fill="#4A4A4A"><path d="M35.975 24.331H23.932a.61.61 0 1 1 0-1.221h12.043a.61.61 0 1 1 0 1.221zM35.975 28.063H23.932a.611.611 0 0 1 0-1.222h12.043a.61.61 0 0 1 0 1.222zM35.975 31.794H23.932a.611.611 0 0 1 0-1.221h12.043a.61.61 0 1 1 0 1.221zM35.975 35.526H23.932a.611.611 0 1 1 0-1.222h12.043a.61.61 0 0 1 0 1.222z"/></g><path d="M56.954 20.869H40.03v16.923h16.923V20.868z" fill="#0D1C5E"/><path opacity=".3" d="M56.954 20.869H40.03v16.923h16.923V20.868z" fill="#fff"/><path opacity=".4" d="M55.56 21.784h-5.667a.482.482 0 0 0-.482.483v14.126c0 .266.216.482.482.482h5.668a.482.482 0 0 0 .482-.482V22.267a.482.482 0 0 0-.482-.483z" fill="#fff"/><g opacity=".2" fill="#4A4A4A"><path d="M54.517 24.331H42.473a.61.61 0 1 1 0-1.221h12.044a.61.61 0 1 1 0 1.221zM54.517 28.063H42.473a.611.611 0 0 1 0-1.222h12.044a.61.61 0 0 1 0 1.222zM54.517 31.794H42.473a.611.611 0 0 1 0-1.221h12.044a.61.61 0 1 1 0 1.221zM54.517 35.526H42.473a.611.611 0 1 1 0-1.222h12.044a.61.61 0 0 1 0 1.222z"/></g><path d="M75.495 20.869H58.572v16.923h16.923V20.868z" fill="#0D1C5E"/><path opacity=".5" d="M74.097 21.784h-5.668a.482.482 0 0 0-.482.483v14.126c0 .266.216.482.482.482h5.668a.482.482 0 0 0 .482-.482V22.267a.482.482 0 0 0-.482-.483z" fill="#fff"/><g opacity=".2" fill="#4A4A4A"><path d="M73.052 24.331H61.015a.61.61 0 1 1 0-1.221h12.037a.61.61 0 1 1 0 1.221zM73.052 28.063H61.015a.61.61 0 0 1 0-1.222h12.037a.61.61 0 0 1 0 1.222zM73.052 31.794H61.015a.61.61 0 0 1 0-1.221h12.037a.61.61 0 1 1 0 1.221zM73.052 35.526H61.015a.61.61 0 1 1 0-1.222h12.037a.61.61 0 0 1 0 1.222z"/></g><path d="M85.572 38.763H68.65v16.923h16.923V38.763z" fill="#0D1C5E"/><path opacity=".3" d="M85.572 38.763H68.65v16.923h16.923V38.763z" fill="#4A4A4A"/><path opacity=".5" d="M84.18 39.679h-5.668a.482.482 0 0 0-.482.482v14.126c0 .267.216.483.483.483h5.667a.483.483 0 0 0 .482-.483V40.161a.482.482 0 0 0-.482-.482z" fill="#fff"/><g opacity=".2" fill="#4A4A4A"><path d="M83.13 42.225H71.091a.61.61 0 0 1 0-1.221h12.037a.61.61 0 0 1 0 1.221zM83.13 45.957H71.091a.61.61 0 1 1 0-1.221h12.037a.61.61 0 1 1 0 1.22zM83.13 49.695H71.091a.61.61 0 1 1 0-1.222h12.037a.61.61 0 1 1 0 1.222zM83.13 53.414H71.091a.61.61 0 1 1 0-1.222h12.037a.61.61 0 1 1 0 1.222z"/></g><path d="M49.497 88.78V45.64C44.06 45.64.285 55.41.285 64.265c0 7.048 3.817 16.252 10.32 24.533l38.892-.018z" fill="#0D1C5E"/><path opacity=".6" d="M49.497 88.78V45.64C44.06 45.64.285 55.41.285 64.265c0 7.048 3.817 16.252 10.32 24.533l38.892-.018z" fill="#fff"/><path d="M49.497 88.78V45.64c5.441 0 49.218 9.771 49.218 18.626 0 7.048-3.823 16.252-10.327 24.533l-38.891-.018z" fill="#0D1C5E"/><path opacity=".5" d="M49.497 88.78V45.64c5.441 0 49.218 9.771 49.218 18.626 0 7.048-3.823 16.252-10.327 24.533l-38.891-.018z" fill="#fff"/><path d="M49.497 89.306H5.806l.409-2.748 2.443-1.32 37.126 1.015 3.713 1.02v2.033z" fill="#0D1C5E"/><path d="M49.497 49.353v-3.714C44.06 45.64.285 55.411.285 64.266v1.045c7.041-7.677 41.73-15.305 49.212-15.958z" fill="#263238"/><path opacity=".2" d="M49.497 49.353v-3.714C44.06 45.64.285 55.411.285 64.266v1.045c7.041-7.677 41.73-15.305 49.212-15.958z" fill="#fff"/><path d="M49.497 89.306h43.691l-.41-2.748-2.436-1.32-37.132 1.015-3.713 1.02v2.033z" fill="#0D1C5E"/><path opacity=".3" d="M49.497 89.306h43.691l-.41-2.748-2.436-1.32-37.132 1.015-3.713 1.02v2.033z" fill="#4A4A4A"/><path d="M49.497 49.353v-3.714c5.441 0 49.218 9.772 49.218 18.627 0 .343 0 .69-.037 1.045-7.01-7.677-41.675-15.305-49.181-15.958z" fill="#263238"/><path opacity=".2" d="m55.543 46.5-6.046 13.357V45.64a43.41 43.41 0 0 1 6.046.861z" fill="#fff"/><path d="m49.497 88.39 43.282-1.832 1.038-5.98-44.32 1.833v5.979z" fill="#0D1C5E"/><path opacity=".3" d="m43.456 46.5 6.04 13.357V45.64c-2.03.145-4.049.433-6.04.861z" fill="#fff"/><path d="M49.497 88.39 6.215 86.558l-1.032-5.98 44.314 1.833v5.979z" fill="#0D1C5E"/><path opacity=".2" d="M49.497 88.39 6.215 86.558l-1.032-5.98 44.314 1.833v5.979z" fill="#fff"/><path d="M58.145 54.58a1.87 1.87 0 1 0 1.66 1.863 1.77 1.77 0 0 0-1.66-1.863zm0 2.944a1.093 1.093 0 1 1 .97-1.081 1.038 1.038 0 0 1-.97 1.087v-.006z" fill="#0D1C5E"/><path d="m55.684 61.054.152-.134v.103c.422 1.771 2.113 2.37 3.83 2.785a3.5 3.5 0 0 1 .653.403c.108-.23.243-.448.403-.647 1.35-1.136 2.602-2.443 2.18-4.202a.515.515 0 0 0 0-.104l.196.05a.085.085 0 0 0 .11-.085.085.085 0 0 0-.019-.05l-.268-.39a.16.16 0 0 0-.281.048l-.147.52a.086.086 0 0 0 .085.108.086.086 0 0 0 .05-.017l.177-.116a3.665 3.665 0 0 1-1.96 3.145.428.428 0 0 1-.611-.275l-1.081-4.391 1.435-.342-.086-.379-1.447.336-.171-.702a.69.69 0 0 0-.61-1.222.696.696 0 0 0-.302 1.164c.093.09.21.153.338.18l.158.708-1.447.342.092.38 1.441-.337.983 4.416a.427.427 0 0 1-.421.519 3.665 3.665 0 0 1-3.157-1.948h.213a.085.085 0 0 0 .074-.147l-.36-.397a.158.158 0 0 0-.24.004.157.157 0 0 0-.036.082l-.067.464a.096.096 0 0 0 .006.134.095.095 0 0 0 .135-.006zm2.443-4.788a.366.366 0 1 1 .713-.165.366.366 0 0 1-.714.165z" fill="#263238"/></svg>