<svg width="135" height="95" fill="none" xmlns="http://www.w3.org/2000/svg"><path d="M97.165 56.658 32.525 44.84a3.552 3.552 0 0 1-2.848-4.124L36.41 3.905a3.552 3.552 0 0 1 4.123-2.848l64.64 11.825a3.553 3.553 0 0 1 2.849 4.123l-6.733 36.812a3.552 3.552 0 0 1-4.124 2.841z" fill="#263238" stroke="#263238" stroke-width="1.35" stroke-linecap="round" stroke-linejoin="round"/><path d="M96.142 11.235c-4.611 2.55-10.01 4.669-15.655 5.02-15.483.97-22.061-6.018-39.301-3.79-2.23.288-4.435.748-6.594 1.376l-2.887 15.777a40.06 40.06 0 0 1 15.823-7.185c15.222-3.19 21.606 2.457 35.358.491 8.157-1.166 15.452-6.394 20.037-10.453l-6.781-1.236zM35.367 9.62c.607-.155 1.224-.323 1.857-.44 15.225-3.193 21.609 2.455 35.358.492a28.241 28.241 0 0 0 6.116-1.615l-37.78-6.91a3.946 3.946 0 0 0-4.592 3.17l-.96 5.303z" fill="#0D1C5E" stroke="#263238" stroke-width="1.35" stroke-linecap="round" stroke-linejoin="round"/><path d="m47.91 13.442-5.03-.921a1.337 1.337 0 0 0-1.556 1.074l-.874 4.774a1.337 1.337 0 0 0 1.074 1.556l5.032.92a1.337 1.337 0 0 0 1.555-1.074l.874-4.774a1.337 1.337 0 0 0-1.074-1.555z" fill="#fff" stroke="#263238" stroke-width="1.35" stroke-linecap="round" stroke-linejoin="round"/><path d="m45.467 15.64-1.086-.198a.656.656 0 0 0-.763.527l-.184 1.007a.656.656 0 0 0 .526.763l1.087.198a.656.656 0 0 0 .763-.526l.184-1.007a.656.656 0 0 0-.527-.763z" fill="#fff" stroke="#263238" stroke-width="1.35" stroke-linecap="round" stroke-linejoin="round"/><path d="m41.412 13.107 2.26.414a.8.8 0 0 1 .646.936l-.168.933M49.075 14.509l-2.219-.404a.804.804 0 0 0-.936.646l-.172.933M40.35 18.917l2.243.413a.808.808 0 0 0 .937-.646l.17-.933M48.008 20.321l-2.215-.406a.808.808 0 0 1-.645-.937l.167-.94M40.869 16.162l2.628.481M45.807 17.066l2.628.481" stroke="#263238" stroke-width="1.35" stroke-linecap="round" stroke-linejoin="round"/><path d="M91.324 51.815a3.643 3.643 0 1 0 1.31-7.169l-4.865-.891a3.643 3.643 0 1 0-1.312 7.168l4.867.892z" fill="#fff"/><path d="M4.658 55.819S.27 60.859 1.106 67.84c.836 6.981 8.244 10.633 8.244 10.633l9.067-17.744s-4.572-4.52-1.356-10.252c.003-.016-7.588.93-12.403 5.34z" fill="#fff" stroke="#263238" stroke-width="1.35" stroke-linecap="round" stroke-linejoin="round"/><path d="M4.658 55.819S.27 60.859 1.106 67.84c.836 6.981 8.244 10.633 8.244 10.633l9.067-17.744s-4.572-4.52-1.356-10.252c.003-.016-7.588.93-12.403 5.34z" fill="#0D1C5E" style="mix-blend-mode:multiply" opacity=".5"/><path d="M43.801 42.699s-5.702.174-7.617 1.101-14.299 9.742-21.386 20.02c-2.406 3.488-3.281 5.419-3.6 6.355-.211.618-.454 1.223-.728 1.815-.787 1.712-2.095 5.235-1.614 8.896.678 5.125 3.671 10.124 15.177 12.248 11.505 2.125 15.874-6.458 16.161-10.12 0 0 27.977 2.019 45.35 3.985 17.372 1.967 23.146.875 28.962 3.171 5.815 2.296 7.239 3.79 9.687 3.83 2.448.038 9.529-7.87 9.707-10.162.177-2.293-2.183-5.551-2.936-5.764-.752-.213-9.852-13.679-9.852-13.679s-.41-2.644-4.394-4.798c-3.985-2.154-23.809-8.154-34.645-11.147-10.837-2.993-32.734-5.78-38.272-5.751z" fill="#fff" stroke="#263238" stroke-width="1.35" stroke-linecap="round" stroke-linejoin="round"/><path d="M132.824 80.183a37.75 37.75 0 0 0-7.623-2.874l-32.798-8.987-43.232-7.527s-17.97-2.906-25.984.969c-5.703 2.764-11.525 11.792-14.412 16.775-.044.78-.016 1.563.084 2.338C9.537 86 12.531 91 24.036 93.125c11.505 2.124 15.874-6.458 16.162-10.12 0 0 27.977 2.018 45.35 3.985 17.372 1.966 23.145.875 28.961 3.17 5.816 2.296 7.24 3.791 9.687 3.83 2.448.039 9.529-7.87 9.707-10.162.11-1.14-.433-2.522-1.079-3.645z" fill="#0D1C5E" style="mix-blend-mode:multiply" opacity=".5"/><path d="M11.41 73.853s8.244-13.19 16.469-14.095c8.224-.904 34.357 2.978 34.357 2.978M64.958 63.246s16.117 2.328 37.225 7.66c21.109 5.33 29.64 8.298 30.793 9.309" stroke="#263238" stroke-width="1.35" stroke-linecap="round" stroke-linejoin="round"/><path d="M80.684 51.802s34.487 8.944 36.666 9.836a7.932 7.932 0 0 1 3.265 2.422" fill="#fff"/><path d="M80.684 51.802s34.487 8.944 36.666 9.836a7.932 7.932 0 0 1 3.265 2.422" stroke="#263238" stroke-width="1.35" stroke-linecap="round" stroke-linejoin="round"/><path d="M37.51 44.517 28.674 57.36s12.474-.261 45.42 5.067l.762-11.774s-15.916-4.924-22.487-5.434c-6.571-.51-14.857-.7-14.857-.7z" fill="#263238" stroke="#263238" stroke-width="1.35" stroke-linecap="round" stroke-linejoin="round"/><path d="M28.825 57.36c.674 0 3.626 0 9.441.474l-6.135-5.49-.404.585-2.902 4.43zM37.511 44.517l-1.682 2.444 14.614 12.103c3.724.443 7.98.998 12.807 1.699 1.712.193 3.49.402 5.338.626L48.412 44.95c-5.525-.312-10.901-.432-10.901-.432z" fill="#fff" stroke="#263238" stroke-width="1.35" stroke-linecap="round" stroke-linejoin="round"/><path d="m75.443 53.123-.116 6.955c1.718-.09 4.401-.032 6.335.969.181-2.38-.18-4.771-1.059-6.991l-5.16-.933zM80.28 53.313a13.797 13.797 0 0 0-1.31-2.192l-3.482-.733-.035 2.182 4.827.743zM75.31 61.04l-.032 1.938 5.926.914c.188-.696.318-1.405.39-2.122-1.081-.462-3.09-1.02-6.283-.73z" fill="#fff" stroke="#263238" stroke-width="1.35" stroke-miterlimit="10"/><path d="M88.808 53.717s-3.31-.817-3.875-.782c-.565.036-.72.988-.72.988l1.186 2.341s-.191.388 1.533.924c1.725.536 3.23.646 3.423.426.194-.22.145-.872.271-1.424.126-.552-1.02-2.409-1.818-2.473z" fill="#fff" stroke="#263238" stroke-width="1.35" stroke-linecap="round" stroke-linejoin="round"/><path d="M90.981 57.824s-3.293-1.06-3.858-1.024c-.565.036-1.137 1.198-1.137 1.198s.417 2.923.791 3.275c.375.352 4.004 1.191 4.563 1.236.559.046.775-.662.83-1.382.055-.72-.562-3.096-1.189-3.303z" fill="#fff" stroke="#263238" stroke-width="1.35" stroke-linecap="round" stroke-linejoin="round"/><path d="M92.231 62.42s-4.172-1.128-4.569-1.16c-.397-.032-.969 1.05-.904 1.292.065.242-.026 2.408-.026 2.408l6.484 1.292-.49-3.006s.012-.145-.495-.827zM91.954 54.605l-.462.846 1.404 2.6s.042.487 1.382.83c1.34.341 3.788.858 3.788.858s.7-.75.565-1.082c-.135-.332-1.614-2.777-2.244-3.145-.63-.368-4.25-1.308-4.433-.907z" fill="#fff" stroke="#263238" stroke-width="1.35" stroke-linecap="round" stroke-linejoin="round"/><path d="M94.272 58.88a4.282 4.282 0 0 0-.488 1.088c-.022.323.417 2.926 1.092 3.552.675.627 4.575 1.079 5.134 1.12.559.043.707-.826.756-1.465.048-.64-.82-2.877-1.434-3.245-.614-.369-4.162-1.205-4.162-1.205s-.62-.303-.898.155z" fill="#fff" stroke="#263238" stroke-width="1.35" stroke-linecap="round" stroke-linejoin="round"/><path d="M101.079 64.686a1.256 1.256 0 0 0-.4-.226c-.895-.307-4.247-1.42-4.825-1.117-.671.348-.897 1.214-.875 1.937.027.518.094 1.033.2 1.54l6.924 1.915-.601-3.306a1.263 1.263 0 0 0-.429-.743h.006zM99.119 56.445l-.184 1.353s.73 1.983 1.508 2.287c.778.303 4.411 1.146 4.65 1.162.239.016.784-.82.742-1.308-.042-.487-1.404-2.583-2.182-2.906-.779-.323-3.95-.869-3.95-.869s-.713-.129-.584.281z" fill="#fff" stroke="#263238" stroke-width="1.35" stroke-linecap="round" stroke-linejoin="round"/><path d="m102.112 60.294-.694 1.712s.907 2.803 1.037 3.213c.129.41 5.189 1.45 5.441 1.308.251-.142.829-.34.755-1.47-.074-1.13-1.631-3.82-2.26-3.949-.63-.129-3.31-.82-3.552-.84-.242-.019-.62-.287-.727.026z" fill="#fff" stroke="#263238" stroke-width="1.35" stroke-linecap="round" stroke-linejoin="round"/><path d="M104.034 65.584s-.856 1.701-.678 2.518c.123.537.297 1.062.519 1.566l6.853 1.738s-.814-2.955-.969-3.933c-.155-.979-1.896-1.43-3.31-1.864-1.414-.432-2.538-.516-2.415-.025zM106.31 57.97l-.106 1.356s1.669 2.299 2.118 2.735c.449.436 4.088 1.12 4.414 1.065.326-.055.468-.846.346-1.337-.123-.49-1.889-2.557-2.584-2.85-.694-.295-3.603-1.166-3.603-1.166s-.788-.3-.585.196z" fill="#fff" stroke="#263238" stroke-width="1.35" stroke-linecap="round" stroke-linejoin="round"/><path d="M109.433 62.229s-.462 1.811-.236 1.989c.226.177 1.227 2.825 1.769 3.11.543.284 4.489 1.152 4.98 1.03.49-.123.565-1.082.306-1.906-.258-.823-1.856-2.954-2.79-3.348-.668-.281-3.303-.901-3.303-.901s-.536-.362-.726.026z" fill="#fff" stroke="#263238" stroke-width="1.35" stroke-linecap="round" stroke-linejoin="round"/><path d="M115.407 68.09s-2.422-.911-2.832-.782c-.41.13-.917 1.453-.937 1.695-.019.243.885 3.12.885 3.12l6.439 1.866v-1.204c0-1.043-1.55-3.814-1.85-4.079-.301-.264-1.705-.617-1.705-.617z" fill="#fff" stroke="#263238" stroke-width="1.35" stroke-linecap="round" stroke-linejoin="round"/><path d="M113.773 60.156a8.668 8.668 0 0 0-.262 1.265c-.035.478 1.369 2.035 2.057 2.49.688.455 4.072 1.36 4.311 1.379.239.02.859-.736.436-1.495a9.527 9.527 0 0 0-2.535-2.525c-.778-.462-3.203-1.134-4.007-1.114z" fill="#0D1C5E" stroke="#263238" stroke-width="1.35" stroke-linecap="round" stroke-linejoin="round"/><path d="M117.215 64.437a5.01 5.01 0 0 0-.323 1.02c-.023.324 1.547 2.852 1.915 3.282.368.429 3.846 1.181 4.243 1.214.397.032 1.291-.062.968-1.208-.322-1.146-1.291-2.993-2.234-3.307-.943-.313-2.664-.849-3.449-1.072-.784-.222-1.12.071-1.12.071z" fill="#0D1C5E" stroke="#263238" stroke-width="1.35" stroke-linecap="round" stroke-linejoin="round"/><path d="M120.612 69.281a4.915 4.915 0 0 0-.707 1.873c-.068.878.645 3.022 1.33 3.552.685.53 5.325 1.78 5.325 1.78s.429-1.415.578-2.287c.148-.872-2.209-3.626-2.422-3.962-.213-.336-3.539-.991-4.104-.956z" fill="#0D1C5E" stroke="#263238" stroke-width="1.35" stroke-linecap="round" stroke-linejoin="round"/><path d="M129.466 87.787c-1.657-.436-4.243-.791-5.205-2.26-.963-1.47-2.044-3.388-11.825-4.147-9.781-.758-75.78-10.026-82.517-10.384-6.736-.359-11.973 7.678-11.973 7.678s-4.114-.474-6.662-1.291a6.07 6.07 0 0 1-2.19-1.26 14.208 14.208 0 0 0-.235 4.76c.678 5.125 3.671 10.123 15.177 12.248 11.505 2.125 15.874-6.458 16.161-10.12 0 0 27.977 2.018 45.35 3.985 17.373 1.966 23.146.875 28.962 3.17 5.815 2.297 7.239 3.792 9.687 3.83 1.485.023 4.66-2.864 6.978-5.654a21.112 21.112 0 0 0-1.708-.555z" fill="#263238" stroke="#263238" stroke-width="1.35" stroke-linecap="round" stroke-linejoin="round"/><path d="M16.877 80.58s-2.038 4.456-2.838 6.852M19.605 79.1s11.777 2.762 19.087 3.637" stroke="#fff" stroke-width="1.013" stroke-linecap="round" stroke-linejoin="round"/><path d="M28.673 57.36s-7.308-4.874-13.269-5.335c-5.96-.462-10.746 3.794-10.746 3.794s14.68-12.852 18.713-13.307c4.033-.456 9.3-.969 14.14 2.021L28.673 57.36z" fill="#fff" stroke="#263238" stroke-width="1.35" stroke-linecap="round" stroke-linejoin="round"/></svg>