<svg width="98" height="108" fill="none" xmlns="http://www.w3.org/2000/svg"><path d="M55.512 11.843 9.26 38.546a3.302 3.302 0 0 0-1.2 4.513l35.805 62.019a3.302 3.302 0 0 0 4.51 1.216l46.251-26.703a3.302 3.302 0 0 0 1.201-4.513L60.021 13.059a3.302 3.302 0 0 0-4.51-1.216z" fill="#263238"/><path d="M58.193 15.637 11.205 42.765l34.945 60.527 46.988-27.128-34.945-60.527z" fill="#fff" stroke="#263238" stroke-width=".28" stroke-linecap="round" stroke-linejoin="round"/><path d="m30.391 43.775 19.083-11.018M56.726 39.569l6.613-3.818M37.7 50.553l17.452-10.076M29.567 55.249l6.955-4.015M26.051 57.279l1.812-1.046M60.598 45.973l6.482-3.743M49.84 52.184l9.448-5.455M33.703 61.5l14.693-8.483M29.792 63.758l2.204-1.272M60.667 54.576l10.156-5.863M38.888 67.15l19.943-11.514M33.535 70.24l3.777-2.18M72.15 56.586l2.414-1.394M44.204 72.72l25.454-14.695M37.276 76.72l5.09-2.938M75.5 63.295l2.806-1.62M53.588 75.946 73.4 64.507M41.018 83.203l10.863-6.272M69.4 75.456l12.647-7.302M44.76 89.683l22.146-12.787" stroke="#263238" stroke-width=".28" stroke-linecap="round" stroke-linejoin="round"/><path d="M37.784 20.254a1.462 1.462 0 0 1-1.507-.041 1.475 1.475 0 0 1-.678-1.35 5.17 5.17 0 0 0-5.142-5.344 5.129 5.129 0 0 0-5.145 5.31 5.173 5.173 0 0 0 2.821 4.438 1.46 1.46 0 0 1 .568 2.006c-.13.225-.317.41-.542.538l-7.749 4.474 5.574 4.822 20.924-12.08-1.39-7.238-7.734 4.465zm-6.301.214a1.796 1.796 0 0 1-2-.132 1.813 1.813 0 0 1-.647-1.9 1.799 1.799 0 0 1 3.302-.429c.239.414.304.906.182 1.368a1.795 1.795 0 0 1-.837 1.093z" fill="#fff" stroke="#263238" stroke-width=".28" stroke-linecap="round" stroke-linejoin="round"/></svg>