<svg width="1200" height="307" fill="none" xmlns="http://www.w3.org/2000/svg"><path fill-rule="evenodd" clip-rule="evenodd" d="M-11.76 105.487c-8.473-14.168-15.659-27.882-21.178-39.683L-27.989 64C-23.19 74.26-17.126 85.96-10.06 98.124a67.092 67.092 0 0 1 1.864-5.596c6.223-16.226 19.24-30.612 44.688-41.833 15.069-6.645 30.16-9.29 44.932-8.915 2.5-1.306 5.143-2.575 7.935-3.806 9.807-4.325 19.624-6.955 29.356-8.162a130.204 130.204 0 0 1 9.899-4.855c18.982-8.37 37.999-10.393 56.369-8.03a102.776 102.776 0 0 1 23.1-4.373 135.67 135.67 0 0 1 6.301-2.968c41.05-18.103 82.268-6.516 116.749 14.907 31.364 19.487 57.466 47.272 73.49 69.012l1.387-.506c4.799 10.262 10.863 21.962 17.93 34.125a66.95 66.95 0 0 1 1.864-5.596c6.223-16.226 19.241-30.612 44.688-41.833 15.069-6.645 30.16-9.29 44.933-8.915 2.5-1.306 5.142-2.575 7.934-3.806 9.807-4.325 19.624-6.955 29.356-8.162a130.204 130.204 0 0 1 9.899-4.855c18.982-8.37 37.999-10.393 56.369-8.03a102.776 102.776 0 0 1 23.1-4.373 135.68 135.68 0 0 1 6.301-2.968c41.05-18.103 82.268-6.516 116.749 14.907 30.699 19.073 56.357 46.098 72.457 67.621l.209-.074.84 1.487a223.868 223.868 0 0 1 4.394 6.172l-.599.348c12.402 20.821 30.038 45.981 50.733 68.705-1.286-16.509-1.639-33.234 5.413-48.548 7.447-16.175 22.985-30.461 53.354-41.615 14.275-5.243 28.573-7.98 42.695-8.694a173.903 173.903 0 0 1 9.78-3.918c8.43-3.097 16.87-5.32 25.28-6.768 4.51-2.177 9.44-4.263 14.85-6.249 20.39-7.488 40.83-9.864 60.73-8.537 4.62-1.122 9.25-1.999 13.86-2.647 3.25-1.44 6.71-2.837 10.39-4.187 48.89-17.957 98.06-6.516 139.43 14.893 41.3 21.372 75.04 52.762 93.52 75.212l-4.26 2.621c-18.04-21.905-51.09-52.643-91.4-73.505-38.59-19.968-83.65-30.811-128.73-16.456 32.14-.356 63.21 9.489 90.8 23.77 41.3 21.372 75.04 52.762 93.53 75.212l-4.27 2.621c-18.04-21.905-51.08-52.643-91.4-73.505-31.51-16.304-67.33-26.525-103.96-21.912 21.52 3.743 42.18 11.475 61.19 21.313 41.3 21.372 75.04 52.763 93.53 75.212l-4.27 2.621c-18.04-21.905-51.08-52.643-91.4-73.505-21-10.864-43.91-19.027-67.7-21.9-7.28 3.818-13.22 7.88-18.06 12.138 16.69 4.215 32.75 10.675 47.77 18.45 41.3 21.373 75.04 52.763 93.52 75.213l-4.26 2.621c-18.04-21.905-51.08-52.643-91.4-73.506-15.69-8.117-32.44-14.726-49.84-18.748-4.68 4.901-8.07 10.027-10.5 15.313a55.43 55.43 0 0 0-2.28 5.774c4.17 1.876 8.26 3.864 12.29 5.946 41.3 21.372 75.03 52.762 93.52 75.212l-4.27 2.621c-18.04-21.905-51.08-52.643-91.4-73.505a249.02 249.02 0 0 0-11.48-5.576c-2.96 12.112-2.34 25.057-1.23 38.427l.45 5.263.01.05v.056c1.35 15.496 2.75 31.48-1.12 46.49-4.36 16.931-15.35 32.502-39.9 45.311-11.44 5.965-23.14 8.69-34.89 8.783-1.658.968-3.384 1.92-5.182 2.859-17.053 8.895-34.706 10.585-52.209 7.088a75.126 75.126 0 0 1-25.276 5.372 119.434 119.434 0 0 1-7.556 4.285c-14.648 7.642-29.74 9.966-44.799 8.253a119.44 119.44 0 0 1-7.675 4.36c-19.872 10.366-40.559 10.947-60.874 4.938-20.211-5.978-39.889-18.425-58.01-33.885-33.996-29.003-63.125-69.14-80.812-99.31-12.167-17.123-31.31-38.818-54.636-57.013-.028 6.181.322 12.506.765 18.928.122 1.778.252 3.563.382 5.355l.001.016v.001c1.126 15.494 2.286 31.448-.93 46.439-3.631 16.92-12.804 32.587-33.405 45.49-11.842 7.417-24.046 9.881-36.217 8.547a99.618 99.618 0 0 1-4.652 3.095c-15.88 9.946-32.412 10.986-48.64 5.902-9.634 5.167-19.478 7.175-29.322 6.634a97.75 97.75 0 0 1-6.194 4.21c-14.598 9.142-29.746 10.76-44.702 7.012a95.156 95.156 0 0 1-8.165 5.709c-16.754 10.494-34.234 11.074-51.317 5.007-16.931-6.013-33.35-18.5-48.424-33.941-27.79-28.466-51.669-67.657-66.458-97.604l-.099.058c-12.014-17.516-31.985-40.639-56.623-59.858-.028 6.181.322 12.506.765 18.929.123 1.782.253 3.573.383 5.37 1.126 15.495 2.286 31.449-.93 46.44-3.631 16.92-12.804 32.587-33.405 45.49-11.842 7.417-24.046 9.881-36.217 8.547a99.757 99.757 0 0 1-4.651 3.095c-15.881 9.946-32.413 10.986-48.641 5.902-9.634 5.167-19.478 7.175-29.322 6.634a97.848 97.848 0 0 1-6.194 4.21c-14.598 9.142-29.746 10.76-44.702 7.012a95.083 95.083 0 0 1-8.165 5.709c-16.754 10.494-34.234 11.074-51.317 5.007-16.931-6.013-33.35-18.5-48.424-33.941-30.16-30.894-55.714-74.42-70.04-105.052l4.948-1.805c14.184 30.328 39.412 73.221 68.938 103.465 14.769 15.128 30.419 26.89 46.112 32.463 15.541 5.519 31.241 5.023 46.55-4.566a93.799 93.799 0 0 0 4.865-3.256l-.082-.029c-16.931-6.013-33.35-18.501-48.424-33.941-30.16-30.894-55.714-74.42-70.041-105.052l4.949-1.805c14.184 30.328 39.412 73.221 68.938 103.465 14.769 15.128 30.42 26.89 46.112 32.463 1.144.406 2.288.779 3.433 1.119 6.947-5.813 11.921-12.052 15.451-18.607-10.251-6.48-20.18-14.965-29.587-24.6-30.16-30.894-55.714-74.42-70.041-105.052l4.949-1.805c14.184 30.328 39.412 73.221 68.937 103.465 9.057 9.277 18.445 17.288 27.971 23.382 1.72-3.984 2.97-8.071 3.864-12.237 1.34-6.247 1.883-12.675 1.975-19.238-26.987-30.117-49.63-69.149-62.794-97.296l4.948-1.805c12.358 26.424 33.1 62.386 57.763 91.21-.188-5.909-.621-11.91-1.06-17.967-.128-1.78-.257-3.565-.38-5.355-.88-12.752-1.456-25.681.774-38.042zm674.263 60.562a328.039 328.039 0 0 1-2.286-4.009l-.518.183c-13.034-17.424-32.331-38.453-55.496-55.95.434-8.241 1.74-16.188 4.631-23.726a57.442 57.442 0 0 1 4.382-9.015c8.316 3.526 16.402 7.819 24.185 12.654 30.585 19.002 56.166 46.225 71.848 67.509 17.457 30.488 47.466 72.514 82.704 102.577 18.121 15.46 37.8 27.907 58.01 33.885a100.26 100.26 0 0 0 7.453 1.9c-.772.424-1.558.845-2.36 1.263-18.626 9.716-37.775 10.212-56.63 4.635-18.959-5.608-37.784-17.411-55.493-32.519-32.432-27.669-60.537-65.925-78.112-95.441l.321-.187a219.154 219.154 0 0 0-2.639-3.759zm210.286 122.856c11.652.263 23.295-2.226 34.741-8.197l.177-.093c-5.883-.561-11.763-1.744-17.613-3.475a106.137 106.137 0 0 1-3.613-1.139c-3.644 4.489-8.149 8.802-13.692 12.904zm7.933-15.004c-4.289 4.991-9.783 9.772-16.793 14.285-4.352-.602-8.698-1.563-13.028-2.843-18.96-5.608-37.785-17.411-55.494-32.519-32.399-27.642-60.481-65.848-78.059-95.352l.661-.385a224.82 224.82 0 0 0-4.757-6.664l-.272-.481-.289-.514-.143.05c-16.101-21.519-41.751-48.531-72.439-67.597-7.701-4.784-15.737-9.078-24.032-12.66 4.003-5.482 9.28-10.69 16.208-15.539 15.481 3.891 30.414 10.816 44.371 19.487 33.546 20.842 61.074 51.575 76.12 73.512l.086-.05c17.814 29.835 46.226 68.474 79.221 96.624 15.308 13.06 31.727 23.969 48.639 30.646zm8.836-2.023c.491.153.982.303 1.473.448 8.257 2.442 16.57 3.72 24.871 3.569a88.765 88.765 0 0 0 8.595-6.178c-9.172-3.728-18.194-8.691-26.968-14.554-1.741 5.759-4.304 11.35-7.971 16.715zm2.986-20.161c-1.731 6.263-4.468 12.358-8.678 18.197-16.525-6.226-32.853-16.904-48.329-30.107-32.537-27.76-60.72-66.175-78.284-95.73l.01-.006-.102-.15a355.271 355.271 0 0 1-4.339-7.51l-.836.295c-16.09-21.559-41.817-48.703-72.622-67.842-12.938-8.038-26.824-14.691-41.294-18.911 1.866-1.11 3.833-2.2 5.904-3.266 27.28-1.693 53.844 8.004 77.583 22.753 33.546 20.842 61.074 51.575 76.12 73.512l.093-.054c17.814 29.835 46.226 68.476 79.224 96.628 5.069 4.325 10.26 8.414 15.55 12.191zm6.278-1.514c9.751 6.658 19.724 12.107 29.77 15.912 6.502-6.167 10.888-12.706 13.8-19.497-8.696-5.423-17.171-11.773-25.33-18.734-5.88-5.016-11.614-10.366-17.169-15.94 1.05 12.819 1.675 25.843-1.071 38.259zm-4.987-44.497c1.224 14.1 2.411 27.864-.099 40.901a225.741 225.741 0 0 1-13.288-10.529c-32.539-27.761-60.724-66.179-78.287-95.735l.004-.002-.038-.055a358.893 358.893 0 0 1-4.395-7.604l-.843.297c-16.089-21.559-41.818-48.705-72.624-67.844-20.917-12.996-44.314-22.372-68.648-23.696 37.29-14.336 74.643-3.625 106.809 16.359 30.836 19.158 56.587 46.674 72.233 68.034 13.482 23.455 34.305 53.6 59.176 79.874zm5.397-1.46c6.825 7.123 13.944 13.927 21.284 20.19 7.69 6.561 15.591 12.498 23.621 17.575a60.98 60.98 0 0 0 1.166-3.973c3.671-14.251 2.352-29.444.998-45.046l-.001-.017c-.154-1.775-.309-3.555-.457-5.339-1.432-17.315-2.195-34.958 5.212-51.045 5.294-11.498 14.678-22.043 30.572-31.186a138.787 138.787 0 0 0-26.947 6.943c-29.566 10.858-44.04 24.504-50.905 39.414-6.905 14.998-6.28 31.592-4.848 48.899.099 1.191.201 2.386.305 3.585zm97.55-100.321c-22.685 10.092-34.524 22.174-40.533 35.225-6.905 14.997-6.28 31.591-4.848 48.899.146 1.763.301 3.535.456 5.313l.005.056c1.352 15.496 2.747 31.479-1.12 46.49a64.635 64.635 0 0 1-1.56 5.168c6.106 3.557 12.276 6.595 18.476 9.012 9.886-9.001 15.135-18.816 17.776-29.066 3.671-14.252 2.352-29.444.998-45.046l-.002-.018-.002-.02c-.153-1.768-.307-3.541-.454-5.318-1.433-17.316-2.195-34.958 5.212-51.045 3.21-6.972 7.923-13.593 14.674-19.763-3.01-.056-6.041-.02-9.078.113zm17.428.272c-8.68 6.832-14.275 14.215-17.83 21.936-6.905 14.998-6.28 31.592-4.848 48.899.145 1.747.298 3.502.451 5.263l.005.05.004.056c1.353 15.496 2.748 31.48-1.119 46.49-2.681 10.407-7.865 20.299-17.165 29.352.767.248 1.534.485 2.302.712 7.536 2.229 15.118 3.488 22.696 3.576 19.234-11.556 27.964-24.976 31.634-39.238 3.68-14.252 2.36-29.445 1-45.046v-.038c-.15-1.768-.31-3.541-.46-5.319-1.43-17.315-2.19-34.958 5.22-51.044a58.091 58.091 0 0 1 6.61-10.984c-9.33-2.343-18.86-3.954-28.5-4.665zm31.96.503c-8.43-2.253-17.04-3.941-25.76-4.943 3.53-2.298 7.45-4.523 11.83-6.666 10.08-1.682 20.12-2.21 30.04-1.767-6.55 4.201-11.85 8.673-16.11 13.376zm2.61 5.796a54.747 54.747 0 0 0-7.49 11.908c-6.9 14.998-6.28 31.592-4.85 48.899.15 1.782.31 3.572.46 5.369 1.35 15.496 2.75 31.48-1.12 46.49-3.41 13.261-10.89 25.687-25.78 36.606 7.6-1.132 15.16-3.547 22.64-7.448 23.57-12.293 33.73-26.972 37.77-42.669 3.67-14.252 2.35-29.445 1-45.046v-.038a877.75 877.75 0 0 1-.46-5.319c-1.12-13.549-1.83-27.298 1.46-40.346-7.69-3.255-15.58-6.094-23.63-8.406zm25 3.729c-6.97-2.937-14.11-5.548-21.39-7.751 4.98-5.078 11.38-9.907 19.56-14.412 4.49.484 8.96 1.16 13.39 2.008-3.93 4.515-6.92 9.238-9.18 14.134a60.675 60.675 0 0 0-2.38 6.021zm-62.09-15.234c-.71-.043-1.42-.082-2.13-.115 1.39-.483 2.78-.941 4.18-1.375-.7.493-1.38.99-2.05 1.49zm-607.045 3.261c4.921 9.967 10.85 20.957 17.595 32.235-2.231 12.361-1.654 25.29-.775 38.042.123 1.79.252 3.575.381 5.355v.001c.438 6.057.871 12.057 1.059 17.966-24.663-28.824-45.405-64.786-57.763-91.21l-1.387.506c-16.024-21.74-42.125-49.525-73.49-69.012-20.917-12.996-44.314-22.372-68.648-23.696 37.29-14.336 74.643-3.625 106.809 16.359 33.546 20.842 61.074 51.575 76.12 73.512l.099-.058zm22.642 75.719c.582 7.997 1.172 16.117 1.165 24.164a238.295 238.295 0 0 0 5.628 5.971c9.752 9.989 19.888 18.511 30.167 24.752 4.983-7.146 7.944-14.731 9.633-22.6.461-2.15.828-4.321 1.114-6.513a222.899 222.899 0 0 1-3.891-3.889c-16.534-16.936-31.684-37.669-44.358-57.992-1.047 9.842-.57 20.156.159 30.735.122 1.777.252 3.562.382 5.354l.001.016v.002zm-63.511-64.077c13.486 27.31 34.533 62.307 59.211 89.848-.091 6.563-.634 12.991-1.974 19.238-.894 4.166-2.145 8.253-3.864 12.237-9.526-6.094-18.914-14.105-27.971-23.382-29.525-30.244-54.753-73.137-68.937-103.465l-1.387.506c-16.024-21.74-42.126-49.525-73.49-69.012-12.938-8.038-26.824-14.691-41.294-18.911 1.866-1.11 3.833-2.2 5.904-3.266 27.28-1.693 53.844 8.004 77.583 22.753 33.546 20.842 61.074 51.575 76.12 73.512l.099-.058zm62.581 110.515c-1.004 4.676-2.43 9.257-4.404 13.709 4.429 2.516 8.882 4.598 13.338 6.18 4.88 1.733 9.776 2.873 14.671 3.325 4.417-3.418 8.108-6.992 11.186-10.699-10.721-6.577-21.102-15.376-30.913-25.426-.66-.676-1.318-1.358-1.973-2.045-.27 5.055-.854 10.057-1.905 14.956zm-41.024-9.182c9.406 9.635 19.336 18.12 29.587 24.6-3.53 6.555-8.504 12.794-15.451 18.607a68.927 68.927 0 0 1-3.433-1.119c-15.693-5.573-31.343-17.335-46.113-32.463-29.525-30.244-54.753-73.137-68.937-103.465l-1.387.506c-16.024-21.74-42.125-49.526-73.49-69.012-7.701-4.784-15.737-9.078-24.032-12.66 4.003-5.482 9.279-10.69 16.208-15.539 15.481 3.891 30.414 10.816 44.371 19.487 33.546 20.842 61.074 51.575 76.12 73.512l.099-.058c14.788 29.947 38.668 69.138 66.458 97.604zm34.371 27.462c-3.295 6.069-7.734 11.87-13.652 17.316 12.242 2.198 24.509.276 36.535-7.256.425-.266.845-.534 1.26-.803a69.95 69.95 0 0 1-10.09-2.778c-4.73-1.68-9.421-3.865-14.053-6.479zm-25.202 19.496.082.029a94.269 94.269 0 0 1-4.864 3.256c-15.31 9.589-31.01 10.085-46.551 4.566-15.693-5.573-31.343-17.335-46.112-32.463-29.526-30.244-54.754-73.137-68.938-103.465l-1.387.506c-13.037-17.687-32.744-39.376-56.529-57.341.434-8.241 1.74-16.188 4.631-23.726a57.447 57.447 0 0 1 4.382-9.015c8.316 3.526 16.402 7.819 24.185 12.654 33.546 20.842 61.074 51.575 76.12 73.511l.099-.057c14.789 29.947 38.668 69.137 66.458 97.604 15.074 15.44 31.493 27.928 48.424 33.941zm36.44-138.529c-1.283 3.344-2.253 6.769-2.974 10.265 13.152 21.773 29.295 44.427 46.98 62.543l.094.096.227.231.355.362c.654-10.347-.122-21.076-.911-31.99-.129-1.781-.258-3.566-.382-5.355-1.191-17.295-1.828-34.914 4.341-51.001 4.627-12.065 13.011-23.113 27.468-32.599-10.95.77-22.012 3.385-33.049 8.252-24.473 10.791-36.451 24.338-42.149 39.196zm52.867-12.721c4.964-12.946 14.696-24.895 33.306-34.895 4.02.155 8.018.545 11.988 1.147-5.07 5.846-8.673 12.076-11.176 18.603-6.169 16.088-5.532 33.706-4.341 51.001.123 1.783.252 3.561.38 5.334v.004l.001.005V152.147c1.129 15.602 2.229 30.824-.832 45.095-1.709 7.964-4.722 15.638-9.815 22.859-7.658-4.853-15.228-10.95-22.61-17.953 1.245-12.119.334-24.652-.556-36.899v-.001l-.001-.018-.001-.017c-.13-1.786-.259-3.565-.381-5.336-1.194-17.328-1.713-33.946 4.038-48.942zm39.255-13.017c2.625-6.847 6.585-13.415 12.485-19.563 9.893 2.08 19.583 5.435 28.959 9.733a63.606 63.606 0 0 0-1.68 3.973c-6.169 16.087-5.532 33.706-4.34 51.001.123 1.789.252 3.575.381 5.355 1.128 15.603 2.229 30.825-.833 45.095-3 13.982-10.019 27.072-25.262 38.384-3.909-.579-7.816-1.585-11.713-2.969-4.326-1.537-8.649-3.543-12.951-5.961 5.34-7.657 8.55-15.819 10.369-24.295 3.216-14.991 2.056-30.944.93-46.439v-.001l-.001-.016c-.13-1.792-.26-3.577-.382-5.354-1.194-17.328-1.713-33.946 4.038-48.943zm16.956-23.81c9.18 2.223 18.149 5.46 26.818 9.454 3.825-6.729 9.114-13.067 16.326-18.908-9.316-1.516-18.794-1.867-28.344-.782-5.781 3.226-10.67 6.649-14.8 10.237zm27.945 20.081a58.794 58.794 0 0 1 1.563-3.695 186.102 186.102 0 0 1 15.006 8.413 217.8 217.8 0 0 1 14.107 9.569c-.229 7.605.189 15.306.715 22.944.124 1.789.253 3.575.381 5.355 1.129 15.603 2.229 30.825-.832 45.095-3.371 15.709-11.814 30.291-31.293 42.491-8.81 5.518-17.75 8.025-26.714 8.107 13.088-11.181 19.569-23.95 22.482-37.526 3.216-14.991 2.057-30.945.931-46.439v-.001l-.002-.016c-.13-1.792-.26-3.577-.382-5.355-1.194-17.327-1.713-33.945 4.038-48.942zm19.277.413a220.585 220.585 0 0 1 11.728 7.828c.61-7.529 2.007-14.919 4.727-22.011a62.113 62.113 0 0 1 4.292-8.99c-5.778-2.196-11.656-4.01-17.612-5.366-8.494 6.135-14.411 12.833-18.505 19.918a191.865 191.865 0 0 1 15.37 8.621zm-60.951-23.01c2.374.294 4.738.66 7.089 1.097a78.256 78.256 0 0 1 7.2-6.115 100.934 100.934 0 0 0-14.289 5.018zM-7.255 112.864c-1.047 9.842-.57 20.156.159 30.735.123 1.782.253 3.573.383 5.37.582 7.998 1.172 16.119 1.165 24.166a239.842 239.842 0 0 0 5.628 5.971c9.752 9.989 19.888 18.511 30.167 24.752 4.983-7.146 7.944-14.731 9.633-22.6.46-2.15.828-4.321 1.114-6.513a218.798 218.798 0 0 1-3.89-3.889c-16.535-16.936-31.685-37.669-44.36-57.992zm1.517 67.589c-.27 5.055-.854 10.057-1.905 14.956-1.004 4.676-2.43 9.257-4.404 13.709 4.43 2.516 8.882 4.598 13.338 6.18 4.88 1.733 9.776 2.873 14.671 3.325 4.417-3.418 8.108-6.992 11.186-10.699-10.721-6.577-21.102-15.376-30.913-25.426-.66-.676-1.318-1.358-1.973-2.045zm-8.558 33.236c-3.295 6.069-7.734 11.87-13.652 17.316 12.242 2.198 24.509.276 36.535-7.256.425-.266.845-.534 1.26-.803a69.945 69.945 0 0 1-10.09-2.778c-4.73-1.68-9.42-3.865-14.053-6.479zM164.97 73.429c.61-7.528 2.007-14.918 4.727-22.01a62.12 62.12 0 0 1 4.292-8.99c-5.778-2.196-11.656-4.01-17.612-5.366-8.494 6.135-14.411 12.833-18.505 19.918a191.865 191.865 0 0 1 15.37 8.621 220.882 220.882 0 0 1 11.728 7.828zm-29.442-11.935a186.102 186.102 0 0 1 15.006 8.413 217.965 217.965 0 0 1 14.107 9.57c-.229 7.604.189 15.305.715 22.943.124 1.787.252 3.57.381 5.348v.007c1.129 15.603 2.229 30.825-.832 45.095-3.371 15.709-11.814 30.291-31.293 42.491-8.811 5.518-17.75 8.025-26.714 8.107 13.088-11.181 19.569-23.95 22.482-37.526 3.216-14.991 2.057-30.945.931-46.44-.131-1.797-.261-3.588-.384-5.371-1.194-17.327-1.713-33.945 4.038-48.942a58.794 58.794 0 0 1 1.563-3.695zm-2.69-6.932c3.825-6.729 9.114-13.067 16.326-18.908-9.316-1.516-18.794-1.867-28.344-.783-5.781 3.227-10.67 6.65-14.8 10.237 9.18 2.223 18.149 5.46 26.818 9.454zm-31.289-5.207c9.893 2.08 19.583 5.435 28.959 9.734a63.606 63.606 0 0 0-1.68 3.972c-6.169 16.087-5.532 33.706-4.34 51.001.123 1.787.252 3.57.38 5.348l.001.007c1.128 15.602 2.229 30.825-.833 45.095-3 13.982-10.019 27.072-25.262 38.384-3.909-.579-7.816-1.585-11.713-2.969-4.326-1.537-8.649-3.543-12.951-5.961 5.34-7.657 8.55-15.819 10.368-24.295 3.217-14.991 2.057-30.945.931-46.44-.13-1.797-.26-3.588-.383-5.37-1.194-17.328-1.713-33.946 4.038-48.943 2.625-6.847 6.585-13.415 12.485-19.563zm-2.169-5.666a78.256 78.256 0 0 1 7.2-6.115 100.96 100.96 0 0 0-14.29 5.018c2.375.294 4.739.66 7.09 1.096zm-16.265 3.35c4.02.157 8.018.546 11.988 1.148-5.07 5.846-8.673 12.076-11.176 18.603-6.17 16.088-5.532 33.706-4.34 51.001.123 1.787.251 3.57.38 5.348v.007c1.129 15.603 2.23 30.825-.832 45.096-1.71 7.964-4.722 15.638-9.815 22.859-7.658-4.853-15.228-10.95-22.61-17.953 1.245-12.119.334-24.653-.556-36.9-.13-1.797-.26-3.588-.383-5.371-1.194-17.328-1.713-33.946 4.038-48.942 4.964-12.946 14.697-24.896 33.306-34.895zm-10.975.17c-10.95.77-22.012 3.384-33.05 8.25C14.619 66.252 2.64 79.799-3.057 94.657c-1.283 3.344-2.253 6.769-2.974 10.265 13.152 21.773 29.295 44.427 46.98 62.543l.676.689c.654-10.347-.122-21.076-.911-31.991l-.001-.007v-.007c-.129-1.775-.258-3.556-.38-5.34-1.192-17.295-1.83-34.914 4.34-51.001C49.3 67.742 57.683 56.694 72.14 47.208zM947.395 249.62c-2.854 6.48-6.961 12.703-12.753 18.583a93.827 93.827 0 0 0 7.642 2.034 76.441 76.441 0 0 0 5.377-2.545c6.137-3.202 11.366-6.566 15.814-10.067-5.421-2.263-10.787-4.955-16.08-8.005zm-16.794 22.385a81.653 81.653 0 0 1-3.337 2.763 69.589 69.589 0 0 0 6.867-1.619c-1.178-.36-2.355-.742-3.53-1.144zM1079.82 88.088c3.19.5 6.37 1.091 9.52 1.764 3.65-3.532 7.95-6.922 12.98-10.152-3.37.956-6.75 2.05-10.13 3.29-4.45 1.637-8.57 3.338-12.37 5.098zm-31.13-1.877c7.15-.285 14.25-.057 21.27.624 5.65-3.012 12.05-5.862 19.3-8.533-13.43.599-27.01 3.09-40.57 7.909zM458.468 247.695c5.288-.409 10.563-1.69 15.804-3.962a92.72 92.72 0 0 1-8.249-3.988 71.3 71.3 0 0 1-7.555 7.95zm10.634-12.068c3.687 1.967 7.387 3.627 11.09 4.942l.171.06c.494-.289.986-.588 1.479-.897 7.737-4.846 13.733-10.067 18.361-15.586-6.949-4.44-13.748-9.796-20.335-15.803a82.198 82.198 0 0 1-.644 3.345c-1.791 8.345-4.93 16.385-10.122 23.939zM610.787 67.049a142.67 142.67 0 0 0-14.629-4.825c4.129-2.525 8.761-4.94 13.956-7.231a102.195 102.195 0 0 1 9.789-3.736c1.758.245 3.509.532 5.255.86-5.976 4.669-10.687 9.665-14.371 14.932zm-21.992-6.581c-7.22-1.497-14.561-2.35-21.98-2.437 13.609-5.732 27.245-8.07 40.654-7.782-7.17 3.164-13.353 6.58-18.674 10.219zM45.224 182.688c.238-1.11.452-2.225.644-3.345 6.587 6.007 13.386 11.363 20.335 15.803-4.628 5.519-10.624 10.74-18.361 15.586-.493.309-.986.608-1.479.897l-.17-.06c-3.704-1.315-7.404-2.975-11.091-4.942 5.192-7.554 8.331-15.594 10.122-23.939zm-20.756 36.007a71.331 71.331 0 0 0 7.555-7.95 92.829 92.829 0 0 0 8.249 3.988c-5.24 2.272-10.515 3.553-15.804 3.962zm137.69-185.471a142.67 142.67 0 0 1 14.629 4.825c3.684-5.267 8.395-10.263 14.371-14.932a113.54 113.54 0 0 0-5.255-.86 102.195 102.195 0 0 0-9.789 3.736c-5.195 2.29-9.827 4.706-13.956 7.231zm-29.343-4.193c7.419.086 14.76.94 21.98 2.437 5.321-3.638 11.504-7.055 18.673-10.22-13.408-.288-27.044 2.05-40.653 7.783zm818.958 242.747c12.963 1.33 25.958-.592 38.721-6.771-5.151-.626-10.298-1.723-15.421-3.238a108.282 108.282 0 0 1-5.499-1.788c-4.921 4.139-10.799 8.082-17.801 11.797zm-446.762-44.723c-4.538 5.528-10.318 10.762-17.637 15.623 13.181 3.042 26.415 1.438 39.369-6.675l.061-.038a71.774 71.774 0 0 1-7.277-2.168c-4.888-1.736-9.733-4.011-14.516-6.742zm-434-29c-4.538 5.528-10.317 10.762-17.637 15.623 13.181 3.042 26.415 1.438 39.369-6.675l.06-.038a71.714 71.714 0 0 1-7.276-2.168c-4.888-1.736-9.733-4.011-14.516-6.742z" fill="#CCCCDE"/></svg>