<svg width="44" height="44" viewBox="0 0 44 44" fill="none" xmlns="http://www.w3.org/2000/svg">
<path d="M43.2511 32.8676C42.8717 35.7507 41.4558 38.397 39.2679 40.3125C37.08 42.2279 34.2696 43.2814 31.3617 43.2761C14.4681 43.2761 0.723408 29.5315 0.723408 12.6379C0.718195 9.72996 1.77168 6.9196 3.6871 4.73167C5.60251 2.54374 8.24888 1.12787 11.1319 0.74849C11.861 0.659471 12.5993 0.808622 13.2366 1.17368C13.8739 1.53873 14.376 2.10012 14.6681 2.77402L19.1617 12.8059V12.8315C19.3853 13.3473 19.4776 13.9105 19.4305 14.4708C19.3833 15.031 19.1982 15.5709 18.8915 16.0421C18.8532 16.0996 18.8128 16.1527 18.7702 16.2059L14.3404 21.457C15.934 24.6953 19.3213 28.0527 22.6021 29.6506L27.7809 25.2442C27.8317 25.2015 27.885 25.1617 27.9404 25.1251C28.4113 24.8111 28.953 24.6194 29.5165 24.5673C30.0801 24.5153 30.6477 24.6047 31.1681 24.8272L31.1957 24.84L41.2192 29.3315C41.8942 29.6225 42.457 30.1242 42.8233 30.7616C43.1895 31.399 43.3396 32.1378 43.2511 32.8676Z" fill="white"/>
</svg>
