<svg width="1574" height="306" viewBox="0 0 1574 306" fill="none" xmlns="http://www.w3.org/2000/svg">
<path fill-rule="evenodd" clip-rule="evenodd" d="M199.069 104.851C190.596 90.6827 183.411 76.9688 177.892 65.1684L182.84 63.363C187.64 73.6249 193.703 85.3254 200.77 97.4878C201.308 95.6042 201.927 93.738 202.635 91.892C208.857 75.6661 221.875 61.2805 247.322 50.059C262.391 43.414 277.483 40.7696 292.255 41.1437C294.755 39.8381 297.397 38.5688 300.189 37.3377C309.997 33.0129 319.813 30.3828 329.545 29.1764C332.615 27.4993 335.91 25.8796 339.444 24.3211C358.426 15.9506 377.443 13.9281 395.814 16.2906C403.546 13.8884 411.261 12.4754 418.913 11.9184C420.924 10.906 423.023 9.91619 425.214 8.94984C466.265 -9.15245 507.482 2.43453 541.963 23.8573C573.328 43.3437 599.429 71.1291 615.453 92.869L616.84 92.363C621.64 102.625 627.703 114.325 634.77 126.488C635.308 124.604 635.927 122.738 636.635 120.892C642.857 104.666 655.875 90.2805 681.323 79.059C696.391 72.414 711.483 69.7696 726.255 70.1437C728.755 68.8381 731.397 67.5688 734.189 66.3377C743.997 62.013 753.813 59.3828 763.545 58.1764C766.615 56.4993 769.91 54.8797 773.444 53.3211C792.426 44.9506 811.443 42.9281 829.814 45.2906C837.546 42.8885 845.261 41.4754 852.913 40.9185C854.924 39.906 857.023 38.9162 859.214 37.9498C900.265 19.8476 941.482 31.4345 975.963 52.8573C1006.66 71.9306 1032.32 98.9546 1048.42 120.478L1048.63 120.404C1048.91 120.897 1049.19 121.392 1049.47 121.891C1051.03 124.01 1052.5 126.072 1053.86 128.063L1053.26 128.411C1065.67 149.232 1083.3 174.392 1104 197.117C1102.71 180.607 1102.36 163.882 1109.41 148.568C1116.86 132.393 1132.4 118.107 1162.76 106.953C1177.04 101.71 1191.34 98.9734 1205.46 98.2591C1208.53 96.9138 1211.79 95.6072 1215.24 94.3409C1223.67 91.2438 1232.11 89.0213 1240.52 87.5735C1245.02 85.3958 1249.96 83.3103 1255.37 81.3242C1275.76 73.8359 1296.19 71.46 1316.09 72.7874C1320.72 71.6654 1325.35 70.7885 1329.96 70.1401C1333.21 68.6999 1336.67 67.3035 1340.35 65.953C1389.24 47.9965 1438.41 59.4368 1479.78 80.8457C1521.08 102.218 1554.82 133.609 1573.3 156.058L1569.04 158.679C1551 136.774 1517.95 106.036 1477.64 85.1737C1439.05 65.2064 1393.99 54.3628 1348.91 68.7185C1381.05 68.3616 1412.11 78.2069 1439.71 92.4877C1481.01 113.86 1514.75 145.251 1533.24 167.7L1528.97 170.321C1510.93 148.416 1477.89 117.678 1437.57 96.8157C1406.06 80.5124 1370.24 70.2916 1333.61 74.9039C1355.13 78.6468 1375.79 86.3794 1394.8 96.2169C1436.1 117.589 1469.84 148.98 1488.33 171.429L1484.06 174.05C1466.02 152.146 1432.98 121.408 1392.66 100.545C1371.66 89.6811 1348.75 81.5181 1324.96 78.6451C1317.68 82.4632 1311.74 86.5254 1306.9 90.7834C1323.59 94.9983 1339.65 101.459 1354.67 109.234C1395.97 130.606 1429.71 161.996 1448.19 184.446L1443.93 187.067C1425.89 165.162 1392.84 134.424 1352.53 113.562C1336.84 105.444 1320.08 98.8351 1302.69 94.8135C1298.01 99.7136 1294.62 104.841 1292.19 110.126C1291.31 112.026 1290.56 113.951 1289.91 115.9C1294.08 117.776 1298.17 119.764 1302.2 121.846C1343.5 143.218 1377.23 174.609 1395.72 197.058L1391.45 199.679C1373.41 177.774 1340.37 147.036 1300.05 126.174C1296.28 124.223 1292.45 122.36 1288.57 120.598C1285.61 132.71 1286.23 145.655 1287.34 159.025C1287.48 160.772 1287.64 162.527 1287.79 164.288L1287.8 164.338L1287.8 164.394C1289.15 179.89 1290.55 195.874 1286.68 210.884C1282.32 227.815 1271.33 243.386 1246.78 256.195C1235.34 262.16 1223.64 264.885 1211.89 264.978C1210.23 265.946 1208.51 266.899 1206.71 267.837C1189.65 276.732 1172 278.422 1154.5 274.925C1146.16 278.264 1137.71 279.978 1129.22 280.297C1126.86 281.757 1124.34 283.186 1121.67 284.583C1107.02 292.224 1091.93 294.548 1076.87 292.835C1074.47 294.321 1071.91 295.775 1069.19 297.195C1049.32 307.561 1028.63 308.142 1008.32 302.133C988.108 296.155 968.43 283.709 950.308 268.248C916.313 239.245 887.184 199.108 869.497 168.938C857.329 151.815 838.187 130.12 814.861 111.925C814.833 118.106 815.183 124.431 815.625 130.854C815.748 132.631 815.877 134.416 816.008 136.208L816.009 136.224C817.135 151.719 818.294 167.673 815.078 182.664C811.448 199.585 802.274 215.252 781.674 228.154C769.831 235.571 757.627 238.035 745.457 236.701C743.975 237.749 742.425 238.781 740.805 239.796C724.924 249.742 708.392 250.782 692.164 245.698C682.53 250.865 672.686 252.874 662.842 252.332C660.902 253.765 658.84 255.169 656.649 256.542C642.051 265.685 626.903 267.302 611.946 263.554C609.448 265.511 606.732 267.415 603.782 269.263C587.027 279.757 569.548 280.337 552.465 274.27C535.533 268.257 519.115 255.77 504.041 240.329C476.25 211.863 452.371 172.672 437.582 142.726L437.484 142.783C425.47 125.267 405.499 102.144 380.861 82.9254C380.833 89.1063 381.183 95.4312 381.625 101.854C381.748 103.636 381.878 105.427 382.009 107.224C383.135 122.719 384.294 138.673 381.078 153.664C377.448 170.585 368.274 186.252 347.674 199.154C335.831 206.571 323.627 209.035 311.457 207.701C309.975 208.749 308.425 209.781 306.805 210.796C290.924 220.742 274.392 221.782 258.164 216.698C248.53 221.865 238.686 223.874 228.842 223.332C226.902 224.765 224.84 226.169 222.649 227.542C208.051 236.685 192.903 238.302 177.946 234.554C175.448 236.511 172.732 238.415 169.782 240.263C153.027 250.757 135.548 251.337 118.465 245.27C101.533 239.257 85.1148 226.77 70.0408 211.329C39.8803 180.435 14.3263 136.909 0 106.278L4.94821 104.472C19.1325 134.8 44.3604 177.693 73.886 207.937C88.6551 223.066 104.306 234.827 119.998 240.4C135.54 245.919 151.24 245.423 166.549 235.834C168.254 234.767 169.874 233.681 171.413 232.578L171.332 232.549C154.4 226.536 137.982 214.049 122.908 198.608C92.7472 167.714 67.1933 124.188 52.8669 93.5563L57.8152 91.7508C71.9994 122.079 97.2274 164.972 126.753 195.216C141.522 210.344 157.173 222.106 172.865 227.679C174.009 228.085 175.154 228.458 176.299 228.798C183.245 222.986 188.22 216.746 191.75 210.191C181.498 203.711 171.569 195.226 162.163 185.591C132.002 154.697 106.448 111.171 92.1218 80.5396L97.07 78.7342C111.254 109.062 136.482 151.955 166.008 182.199C175.064 191.476 184.453 199.487 193.979 205.581C195.698 201.597 196.948 197.51 197.842 193.344C199.182 187.097 199.725 180.669 199.817 174.106C172.831 143.99 150.187 104.957 137.023 76.8104L141.971 75.0049C154.33 101.429 175.071 137.391 199.735 166.215C199.547 160.306 199.113 154.306 198.675 148.248C198.546 146.468 198.417 144.683 198.294 142.893C197.415 130.141 196.838 117.212 199.069 104.851ZM873.333 165.413C872.546 164.055 871.784 162.718 871.046 161.404L870.528 161.587C857.495 144.163 838.198 123.134 815.033 105.637C815.466 97.396 816.773 89.4487 819.663 81.9111C820.839 78.8461 822.281 75.8369 824.046 72.8962C832.361 76.4223 840.448 80.7146 848.231 85.5499C878.815 104.552 904.397 131.775 920.078 153.059C937.535 183.548 967.545 225.573 1002.78 255.636C1020.9 271.096 1040.58 283.543 1060.79 289.521C1063.27 290.254 1065.76 290.89 1068.25 291.421C1067.47 291.845 1066.69 292.266 1065.89 292.685C1047.26 302.401 1028.11 302.896 1009.26 297.319C990.296 291.711 971.471 279.909 953.762 264.8C921.331 237.131 893.225 198.876 875.65 169.359L875.971 169.173C875.129 167.945 874.249 166.691 873.333 165.413ZM1083.62 288.269C1095.27 288.532 1106.91 286.043 1118.36 280.072L1118.54 279.98C1112.65 279.418 1106.77 278.235 1100.92 276.504C1099.72 276.148 1098.51 275.768 1097.31 275.366C1093.67 279.854 1089.16 284.167 1083.62 288.269ZM1091.55 273.265C1087.26 278.256 1081.77 283.038 1074.76 287.55C1070.41 286.948 1066.06 285.988 1061.73 284.707C1042.77 279.099 1023.95 267.296 1006.24 252.188C973.837 224.547 945.756 186.34 928.177 156.836L928.838 156.451C927.367 154.307 925.779 152.08 924.081 149.787C923.99 149.626 923.9 149.466 923.809 149.306C923.713 149.134 923.616 148.963 923.52 148.792L923.378 148.842C907.277 127.323 881.627 100.311 850.938 81.2451C843.238 76.4609 835.202 72.1673 826.906 68.5853C830.91 63.1035 836.186 57.8944 843.115 53.0464C858.596 56.9372 873.529 63.8623 887.485 72.5334C921.032 93.3751 948.559 124.108 963.605 146.045L963.691 145.995C981.506 175.83 1009.92 214.469 1042.91 242.619C1058.22 255.679 1074.64 266.588 1091.55 273.265ZM1100.39 271.242C1100.88 271.395 1101.37 271.545 1101.86 271.69C1110.12 274.132 1118.43 275.41 1126.73 275.259C1129.89 273.252 1132.75 271.191 1135.33 269.081C1126.15 265.353 1117.13 260.391 1108.36 254.527C1106.62 260.286 1104.05 265.877 1100.39 271.242ZM1103.37 251.081C1101.64 257.344 1098.91 263.439 1094.7 269.278C1078.17 263.052 1061.84 252.374 1046.37 239.171C1013.83 211.412 985.646 172.996 968.083 143.441L968.093 143.435L967.99 143.285C966.462 140.71 965.014 138.202 963.651 135.776L962.815 136.07C946.726 114.511 920.998 87.3671 890.193 68.2285C877.255 60.1904 863.369 53.5369 848.899 49.317C850.766 48.2063 852.732 47.1174 854.804 46.0515C882.083 44.3578 908.648 54.0554 932.387 68.8041C965.933 89.6458 993.46 120.379 1008.51 142.316L1008.6 142.262C1026.41 172.097 1054.83 210.738 1087.82 238.89C1092.89 243.215 1098.08 247.304 1103.37 251.081ZM1109.65 249.567C1119.4 256.226 1129.38 261.674 1139.42 265.479C1145.92 259.312 1150.31 252.773 1153.22 245.983C1144.53 240.559 1136.05 234.209 1127.89 227.248C1122.01 222.232 1116.28 216.882 1110.72 211.309C1111.77 224.127 1112.4 237.151 1109.65 249.567ZM1104.66 205.07C1105.89 219.17 1107.08 232.934 1104.57 245.971C1100.08 242.691 1095.64 239.167 1091.28 235.442C1058.74 207.681 1030.55 169.263 1012.99 139.708L1012.99 139.705L1012.96 139.65C1011.41 137.042 1009.94 134.503 1008.56 132.046L1007.72 132.343C991.629 110.784 965.901 83.6386 935.095 64.4993C914.177 51.5034 890.781 42.1272 866.446 40.8029C903.736 26.4676 941.09 37.178 973.255 57.1621C1004.09 76.3204 1029.84 103.837 1045.49 125.196C1058.97 148.651 1079.79 178.796 1104.66 205.07ZM1110.06 203.61C1116.89 210.733 1124.01 217.538 1131.35 223.8C1139.04 230.361 1146.94 236.298 1154.97 241.375C1155.4 240.059 1155.79 238.734 1156.13 237.403C1159.8 223.151 1158.48 207.958 1157.13 192.357L1157.13 192.339C1156.97 190.564 1156.82 188.785 1156.67 187C1155.24 169.685 1154.48 152.042 1161.88 135.956C1167.18 124.457 1176.56 113.913 1192.46 104.769C1183.5 106.139 1174.5 108.41 1165.51 111.712C1135.94 122.571 1121.47 136.216 1114.6 151.126C1107.7 166.124 1108.32 182.718 1109.76 200.025C1109.86 201.216 1109.96 202.412 1110.06 203.61ZM1207.61 103.289C1184.93 113.382 1173.09 125.464 1167.08 138.514C1160.17 153.512 1160.8 170.106 1162.23 187.413C1162.38 189.176 1162.53 190.948 1162.69 192.726L1162.69 192.782C1164.04 208.278 1165.44 224.262 1161.57 239.272C1161.12 241.01 1160.61 242.733 1160.01 244.441C1166.12 247.997 1172.29 251.035 1178.49 253.452C1188.37 244.451 1193.62 234.636 1196.26 224.386C1199.93 210.134 1198.62 194.942 1197.26 179.34L1197.26 179.321L1197.26 179.301C1197.1 177.533 1196.95 175.761 1196.8 173.984C1195.37 156.668 1194.61 139.026 1202.02 122.939C1205.23 115.967 1209.94 109.347 1216.69 103.176C1213.68 103.12 1210.65 103.156 1207.61 103.289ZM1225.04 103.561C1216.36 110.393 1210.76 117.776 1207.21 125.497C1200.3 140.495 1200.93 157.089 1202.36 174.397C1202.51 176.143 1202.66 177.898 1202.81 179.659L1202.82 179.71L1202.82 179.765C1204.17 195.261 1205.57 211.245 1201.7 226.255C1199.02 236.662 1193.84 246.554 1184.54 255.608C1185.3 255.855 1186.07 256.092 1186.84 256.319C1194.38 258.548 1201.96 259.807 1209.54 259.895C1228.77 248.34 1237.5 234.919 1241.17 220.657C1244.84 206.405 1243.53 191.213 1242.17 175.611L1242.17 175.593L1242.17 175.573C1242.01 173.805 1241.86 172.032 1241.71 170.254C1240.28 152.939 1239.52 135.297 1246.93 119.21C1248.66 115.441 1250.84 111.774 1253.53 108.226C1244.21 105.883 1234.68 104.272 1225.04 103.561ZM1257 104.064C1248.56 101.811 1239.96 100.123 1231.24 99.1209C1234.77 96.8232 1238.69 94.5983 1243.07 92.4552C1253.15 90.7733 1263.19 90.2449 1273.11 90.6884C1266.56 94.8894 1261.26 99.3613 1257 104.064ZM1259.6 109.86C1256.44 113.714 1254 117.694 1252.12 121.768C1245.21 136.766 1245.84 153.36 1247.27 170.667C1247.42 172.449 1247.58 174.239 1247.73 176.036C1249.08 191.532 1250.48 207.516 1246.61 222.526C1243.2 235.787 1235.71 248.214 1220.83 259.132C1228.43 258 1235.99 255.586 1243.47 251.685C1267.04 239.391 1277.2 224.712 1281.24 209.015C1284.91 194.763 1283.59 179.571 1282.24 163.969L1282.24 163.951L1282.24 163.931C1282.08 162.163 1281.93 160.39 1281.78 158.613C1280.66 145.063 1279.95 131.314 1283.24 118.266C1275.55 115.011 1267.66 112.172 1259.6 109.86ZM1284.61 113.589C1277.64 110.652 1270.5 108.041 1263.22 105.838C1268.2 100.76 1274.6 95.931 1282.77 91.4266C1287.27 91.9106 1291.74 92.5855 1296.17 93.4339C1292.24 97.9492 1289.25 102.672 1286.99 107.568C1286.08 109.552 1285.29 111.561 1284.61 113.589ZM1222.52 98.3547C1221.81 98.3116 1221.1 98.2734 1220.39 98.2399C1221.78 97.7573 1223.17 97.2991 1224.56 96.8648C1223.87 97.358 1223.19 97.8546 1222.52 98.3547ZM615.474 101.616C620.396 111.583 626.324 122.573 633.069 133.851C630.838 146.212 631.415 159.141 632.294 171.893C632.417 173.683 632.546 175.468 632.675 177.248C633.113 183.305 633.547 189.306 633.735 195.215C609.071 166.391 588.33 130.429 575.971 104.005L574.585 104.511C558.561 82.7711 532.459 54.9857 501.095 35.4993C480.177 22.5034 456.781 13.1272 432.446 11.8029C469.736 -2.53243 507.09 8.17799 539.255 28.1621C572.802 49.0039 600.329 79.737 615.375 101.674L615.474 101.616ZM638.117 177.335C638.698 185.333 639.288 193.452 639.281 201.499C641.138 203.537 643.015 205.53 644.909 207.47C654.661 217.459 664.798 225.981 675.077 232.222C680.06 225.076 683.021 217.491 684.709 209.622C685.17 207.472 685.537 205.301 685.824 203.109C684.517 201.836 683.22 200.539 681.933 199.22C665.398 182.284 650.249 161.551 637.574 141.228C636.527 151.07 637.004 161.384 637.733 171.963C637.856 173.74 637.985 175.525 638.116 177.317L638.117 177.334V177.335ZM574.605 113.258C588.092 140.568 609.138 175.565 633.817 203.106C633.725 209.669 633.182 216.097 631.842 222.344C630.948 226.51 629.698 230.597 627.979 234.581C618.453 228.487 609.065 220.476 600.008 211.199C570.482 180.955 545.254 138.062 531.07 107.734L529.683 108.24C513.659 86.5003 487.558 58.7149 456.193 39.2285C443.255 31.1903 429.369 24.5369 414.899 20.317C416.766 19.2062 418.732 18.1173 420.804 17.0515C448.083 15.3578 474.648 25.0554 498.387 39.8041C531.933 60.6458 559.46 91.3789 574.507 113.316L574.605 113.258ZM637.186 223.773C636.183 228.449 634.756 233.03 632.782 237.483C637.212 239.998 641.664 242.08 646.12 243.662C651.001 245.395 655.897 246.535 660.792 246.987C665.208 243.569 668.899 239.995 671.977 236.288C661.256 229.711 650.875 220.912 641.064 210.862C640.404 210.186 639.747 209.504 639.091 208.817C638.821 213.872 638.237 218.874 637.186 223.773ZM596.163 214.591C605.569 224.226 615.498 232.711 625.75 239.191C622.22 245.746 617.245 251.986 610.299 257.798C609.154 257.458 608.009 257.085 606.865 256.679C591.173 251.106 575.522 239.344 560.753 224.216C531.227 193.972 505.999 151.079 491.815 120.751L490.428 121.257C474.405 99.5169 448.303 71.7315 416.938 52.2451C409.238 47.4609 401.202 43.1672 392.906 39.5852C396.91 34.1035 402.186 28.8944 409.115 24.0464C424.596 27.9372 439.529 34.8623 453.485 43.5333C487.032 64.3751 514.559 95.1082 529.605 117.045L529.704 116.988C544.493 146.934 568.372 186.125 596.163 214.591ZM630.533 242.053C627.238 248.122 622.799 253.923 616.881 259.369C629.123 261.567 641.39 259.645 653.416 252.113C653.841 251.847 654.262 251.579 654.676 251.31C651.304 250.657 647.938 249.722 644.587 248.532C639.856 246.852 635.166 244.667 630.533 242.053ZM605.332 261.549L605.413 261.578C603.874 262.681 602.254 263.767 600.549 264.834C585.24 274.423 569.54 274.919 553.998 269.4C538.306 263.827 522.655 252.066 507.886 236.937C478.36 206.693 453.132 163.8 438.948 133.472L437.561 133.978C424.525 116.291 404.818 94.6025 381.033 76.637C381.466 68.3959 382.773 60.4487 385.663 52.9111C386.839 49.8461 388.281 46.8369 390.046 43.8962C398.361 47.4222 406.448 51.7146 414.231 56.5499C447.777 77.3917 475.304 108.125 490.351 130.062L490.449 130.004C505.238 159.951 529.117 199.142 556.908 227.608C571.982 243.049 588.4 255.536 605.332 261.549ZM641.771 123.02C640.489 126.365 639.518 129.789 638.797 133.285C651.949 155.058 668.092 177.712 685.778 195.828L685.871 195.924C685.947 196.001 686.022 196.078 686.098 196.155C686.217 196.276 686.335 196.397 686.454 196.517C687.107 186.17 686.331 175.442 685.542 164.527C685.413 162.746 685.284 160.961 685.161 159.172C683.969 141.877 683.332 124.258 689.502 108.171C694.128 96.1057 702.512 85.0582 716.97 75.5724C706.019 76.3427 694.957 78.9568 683.92 83.824C659.448 94.6156 647.469 108.162 641.771 123.02ZM694.638 110.299C699.603 97.3533 709.335 85.4036 727.944 75.404C731.964 75.5596 735.962 75.949 739.932 76.5514C734.863 82.397 731.26 88.6266 728.756 95.1541C722.587 111.242 723.224 128.86 724.416 146.155C724.539 147.938 724.667 149.716 724.795 151.489L724.796 151.493L724.796 151.498L724.796 151.504L724.797 151.51C725.925 167.113 727.026 182.335 723.964 196.606C722.255 204.57 719.243 212.244 714.149 219.465C706.492 214.612 698.922 208.515 691.539 201.512C692.785 189.394 691.874 176.86 690.984 164.613L690.983 164.594L690.981 164.577C690.852 162.791 690.722 161.012 690.6 159.241C689.406 141.914 688.887 125.296 694.638 110.299ZM733.893 97.2824C736.519 90.4356 740.478 83.8675 746.379 77.7191C756.272 79.7994 765.961 83.1538 775.337 87.4526C774.729 88.7637 774.17 90.088 773.658 91.4248C767.488 107.513 768.125 125.131 769.317 142.426C769.44 144.216 769.57 146.001 769.698 147.781C770.826 163.383 771.927 178.606 768.865 192.876C765.865 206.859 758.846 219.948 743.603 231.26C739.695 230.681 735.788 229.675 731.89 228.291C727.564 226.755 723.242 224.748 718.94 222.33C724.28 214.673 727.489 206.512 729.308 198.035C732.524 183.045 731.365 167.091 730.239 151.596L730.237 151.579C730.107 149.788 729.978 148.002 729.855 146.225C728.661 128.897 728.142 112.279 733.893 97.2824ZM750.849 73.4726C760.029 75.6948 768.999 78.9324 777.668 82.9259C781.492 76.1974 786.782 69.8589 793.994 64.0179C784.677 62.502 775.199 62.1514 765.65 63.2357C759.868 66.4624 754.979 69.885 750.849 73.4726ZM778.795 93.5531C779.271 92.312 779.79 91.08 780.358 89.858C785.467 92.4113 790.475 95.2342 795.364 98.2713C800.197 101.274 804.906 104.483 809.47 107.84C809.241 115.445 809.66 123.146 810.186 130.784C810.309 132.574 810.438 134.359 810.567 136.139C811.695 151.741 812.796 166.964 809.734 181.234C806.364 196.943 797.92 211.525 778.441 223.725C769.631 229.243 760.691 231.75 751.727 231.832C764.816 220.651 771.297 207.882 774.209 194.306C777.426 179.315 776.266 163.361 775.14 147.867L775.139 147.85C775.009 146.058 774.879 144.273 774.757 142.496C773.562 125.168 773.044 108.55 778.795 93.5531ZM798.071 93.9665C802.07 96.4506 805.983 99.0696 809.8 101.794C810.41 94.2651 811.807 86.8752 814.526 79.7829C815.702 76.7179 817.12 73.7185 818.818 70.7938C813.041 68.597 807.162 66.784 801.207 65.4273C792.712 71.5624 786.795 78.26 782.702 85.3453C787.952 87.973 793.082 90.8668 798.071 93.9665ZM737.12 70.9564C739.494 71.2498 741.858 71.6166 744.209 72.0527C746.387 69.9569 748.781 67.9172 751.41 65.9381C746.649 67.2141 741.883 68.8759 737.12 70.9564ZM203.574 112.228C202.527 122.07 203.004 132.384 203.733 142.963C203.856 144.745 203.986 146.536 204.117 148.334C204.698 156.332 205.288 164.452 205.281 172.499C207.138 174.537 209.015 176.53 210.909 178.47C220.661 188.459 230.798 196.981 241.077 203.222C246.06 196.076 249.021 188.491 250.709 180.622C251.17 178.472 251.537 176.301 251.824 174.109C250.517 172.836 249.22 171.539 247.933 170.22C231.399 153.284 216.249 132.551 203.574 112.228ZM205.091 179.817C204.821 184.872 204.237 189.874 203.186 194.773C202.183 199.449 200.756 204.03 198.782 208.483C203.212 210.998 207.664 213.08 212.12 214.662C217.001 216.395 221.897 217.535 226.792 217.987C231.208 214.569 234.899 210.995 237.977 207.288C227.256 200.711 216.875 191.912 207.064 181.862C206.404 181.186 205.747 180.504 205.091 179.817ZM196.533 213.053C193.238 219.122 188.799 224.923 182.881 230.369C195.123 232.567 207.39 230.645 219.416 223.113C219.841 222.847 220.262 222.579 220.676 222.31C217.304 221.657 213.938 220.722 210.587 219.532C205.856 217.852 201.166 215.667 196.533 213.053ZM375.8 72.7937C376.41 65.2651 377.807 57.8752 380.526 50.7829C381.702 47.7179 383.12 44.7185 384.818 41.7938C379.04 39.597 373.162 37.784 367.207 36.4273C358.712 42.5624 352.795 49.26 348.702 56.3452C353.952 58.973 359.082 61.8667 364.071 64.9664C368.07 67.4506 371.983 70.0695 375.8 72.7937ZM346.358 60.8579C351.467 63.4113 356.475 66.2342 361.364 69.2713C366.197 72.2743 370.906 75.4826 375.47 78.8404C375.241 86.445 375.66 94.1462 376.186 101.784C376.309 103.571 376.438 105.354 376.566 107.132L376.567 107.139C377.695 122.742 378.796 137.964 375.734 152.234C372.364 167.943 363.92 182.525 344.441 194.725C335.631 200.243 326.691 202.75 317.727 202.832C330.816 191.651 337.297 178.882 340.209 165.306C343.426 150.315 342.266 134.361 341.14 118.866C341.009 117.069 340.879 115.278 340.757 113.496C339.562 96.1677 339.044 79.5497 344.795 64.5531C345.271 63.312 345.79 62.08 346.358 60.8579ZM343.668 53.9259C347.492 47.1974 352.782 40.8589 359.994 35.0179C350.677 33.502 341.199 33.1514 331.65 34.2357C325.868 37.4624 320.979 40.885 316.849 44.4726C326.029 46.6948 334.999 49.9324 343.668 53.9259ZM312.379 48.7191C322.272 50.7994 331.961 54.1538 341.337 58.4526C340.729 59.7637 340.171 61.088 339.658 62.4248C333.488 78.5125 334.125 96.1312 335.317 113.426C335.44 115.213 335.569 116.996 335.698 118.774L335.698 118.781C336.826 134.384 337.927 149.606 334.865 163.876C331.865 177.859 324.846 190.948 309.603 202.26C305.695 201.681 301.788 200.675 297.89 199.291C293.564 197.755 289.241 195.748 284.94 193.33C290.28 185.673 293.489 177.512 295.308 169.035C298.524 154.044 297.365 138.09 296.239 122.596C296.108 120.798 295.978 119.007 295.855 117.225C294.661 99.897 294.142 83.2789 299.893 68.2824C302.519 61.4356 306.478 54.8675 312.379 48.7191ZM310.21 43.0527C312.387 40.9569 314.781 38.9172 317.41 36.9381C312.649 38.2141 307.883 39.8759 303.12 41.9564C305.494 42.2498 307.858 42.6166 310.21 43.0527ZM293.944 46.404C297.964 46.5596 301.962 46.949 305.932 47.5514C300.863 53.397 297.26 59.6266 294.756 66.1541C288.587 82.2418 289.224 99.8605 290.416 117.155C290.539 118.942 290.668 120.725 290.796 122.503L290.797 122.51C291.925 138.113 293.026 153.335 289.964 167.606C288.255 175.57 285.243 183.244 280.149 190.465C272.492 185.612 264.922 179.515 257.539 172.512C258.785 160.393 257.874 147.859 256.984 135.612C256.853 133.815 256.723 132.024 256.6 130.241C255.406 112.914 254.887 96.2955 260.638 81.299C265.603 68.3533 275.335 56.4036 293.944 46.404ZM282.97 46.5724C272.019 47.3427 260.957 49.9568 249.92 54.824C225.448 65.6156 213.469 79.1619 207.771 94.0203C206.489 97.3646 205.518 100.789 204.797 104.285C217.949 126.058 234.092 148.712 251.778 166.828C252.003 167.059 252.228 167.288 252.454 167.517C253.107 157.17 252.331 146.442 251.542 135.527L251.541 135.519L251.541 135.512C251.413 133.737 251.284 131.956 251.161 130.172C249.969 112.877 249.332 95.2584 255.502 79.1707C260.128 67.1057 268.512 56.0582 282.97 46.5724ZM1158.22 248.984C1155.37 255.464 1151.26 261.687 1145.47 267.567C1145.9 267.701 1146.34 267.833 1146.77 267.961C1148.88 268.585 1151 269.133 1153.11 269.601C1154.91 268.836 1156.7 267.988 1158.49 267.056C1164.63 263.854 1169.86 260.491 1174.3 256.989C1168.88 254.726 1163.52 252.034 1158.22 248.984ZM1141.43 271.369C1140.37 272.3 1139.25 273.221 1138.09 274.132C1140.39 273.713 1142.68 273.175 1144.96 272.513C1143.78 272.153 1142.61 271.772 1141.43 271.369ZM1290.65 87.4519C1293.84 87.953 1297.02 88.5431 1300.17 89.2161C1303.82 85.6842 1308.12 82.2942 1313.15 79.0642C1309.77 80.0201 1306.4 81.1143 1303.02 82.3536C1298.57 83.9914 1294.45 85.6925 1290.65 87.4519ZM1259.52 85.5751C1266.67 85.2897 1273.77 85.5186 1280.79 86.199C1286.44 83.1871 1292.84 80.3371 1300.09 77.6661C1286.66 78.2651 1273.08 80.7554 1259.52 85.5751ZM669.298 247.059C674.586 246.65 679.861 245.369 685.101 243.098C682.335 241.93 679.584 240.595 676.852 239.109C674.644 241.833 672.138 244.486 669.298 247.059ZM679.931 234.991C683.618 236.958 687.319 238.618 691.022 239.933L691.193 239.993C691.686 239.704 692.179 239.405 692.671 239.096C700.408 234.251 706.404 229.029 711.033 223.51C704.084 219.071 697.284 213.714 690.697 207.707C690.505 208.827 690.291 209.942 690.053 211.052C688.263 219.397 685.124 227.437 679.931 234.991ZM821.616 66.413C816.814 64.5433 811.933 62.9212 806.988 61.5882C811.116 59.0628 815.748 56.6477 820.943 54.3568C824.206 52.9182 827.47 51.6765 830.733 50.621C832.49 50.8663 834.242 51.1536 835.988 51.4811C830.011 56.1501 825.301 61.1462 821.616 66.413ZM799.625 59.8319C792.404 58.3349 785.063 57.4813 777.645 57.3951C791.254 51.6628 804.89 49.3244 818.298 49.6129C811.128 52.7777 804.946 56.1939 799.625 59.8319ZM256.053 182.052C256.291 180.942 256.505 179.827 256.697 178.707C263.284 184.714 270.084 190.071 277.033 194.51C272.404 200.029 266.408 205.251 258.671 210.096C258.179 210.405 257.686 210.704 257.193 210.993L257.022 210.933C253.319 209.618 249.618 207.958 245.931 205.991C251.124 198.437 254.263 190.397 256.053 182.052ZM235.298 218.059C238.138 215.486 240.644 212.833 242.852 210.109C245.584 211.595 248.335 212.93 251.101 214.098C245.861 216.369 240.586 217.65 235.298 218.059ZM372.988 32.5882C377.933 33.9212 382.814 35.5433 387.616 37.413C391.301 32.1462 396.011 27.1501 401.988 22.4811C400.242 22.1536 398.49 21.8663 396.733 21.621C393.47 22.6765 390.206 23.9182 386.943 25.3568C381.748 27.6477 377.116 30.0628 372.988 32.5882ZM343.645 28.3951C351.063 28.4813 358.404 29.3348 365.625 30.8319C370.946 27.1939 377.128 23.7776 384.298 20.6128C370.89 20.3244 357.254 22.6627 343.645 28.3951ZM1162.6 271.142C1175.57 272.472 1188.56 270.55 1201.32 264.371C1196.17 263.745 1191.03 262.649 1185.9 261.133C1184.06 260.59 1182.23 259.993 1180.4 259.345C1175.48 263.484 1169.6 267.427 1162.6 271.142ZM715.841 226.419C711.302 231.948 705.523 237.181 698.204 242.042C711.385 245.084 724.618 243.481 737.572 235.367L737.633 235.329C735.202 234.746 732.775 234.02 730.357 233.161C725.469 231.425 720.623 229.15 715.841 226.419ZM281.841 197.419C277.302 202.948 271.523 208.181 264.204 213.042C277.384 216.084 290.618 214.481 303.572 206.367L303.633 206.329C301.202 205.746 298.775 205.02 296.357 204.161C291.469 202.425 286.623 200.15 281.841 197.419Z" fill="#CCCCDE"/>
</svg>
