<svg width="62" height="71" fill="none" xmlns="http://www.w3.org/2000/svg"><path d="M30.842 63.535a29.26 29.26 0 0 1-5.76-.531c-1.893-.368-3.757-.885-5.539-1.6a31.144 31.144 0 0 1-9.64-6.043 30.922 30.922 0 0 1-6.774-8.998A29.677 29.677 0 0 1 .092 35.5c-.296-3.788.114-7.696 1.34-11.448a29.31 29.31 0 0 1 6.04-10.436c1.393-1.546 2.952-2.992 4.692-4.25 1.734-1.26 3.611-2.389 5.635-3.273.503-.225 1.019-.425 1.53-.637.519-.197 1.046-.375 1.57-.56.532-.169 1.067-.325 1.605-.483.543-.14 1.09-.259 1.636-.388a33.444 33.444 0 0 1 6.704-.702c2.251.015 4.504.249 6.702.707a32.14 32.14 0 0 1 6.336 2.075c4.025 1.809 7.547 4.422 10.314 7.528a29.368 29.368 0 0 1 6.032 10.431 29.492 29.492 0 0 1 1.34 11.44c-.6 7.595-4.21 14.738-9.792 19.857-1.39 1.287-2.921 2.43-4.526 3.457-1.607 1.026-3.339 1.867-5.112 2.589-1.782.717-3.647 1.233-5.54 1.602-1.89.363-3.823.54-5.756.526zm0-.487c3.789-.005 7.565-.78 10.996-2.25a27.98 27.98 0 0 0 9.043-6.19 27.42 27.42 0 0 0 5.817-8.891 27.187 27.187 0 0 0 1.97-10.222 27.135 27.135 0 0 0-2.03-10.2 27.386 27.386 0 0 0-5.855-8.83A27.842 27.842 0 0 0 30.842 8.19a27.96 27.96 0 0 0-10.912 2.172 27.976 27.976 0 0 0-9.027 6.112 27.385 27.385 0 0 0-5.854 8.83 27.136 27.136 0 0 0-2.03 10.2 27.186 27.186 0 0 0 1.97 10.221 27.453 27.453 0 0 0 5.817 8.889 28.054 28.054 0 0 0 9.042 6.19 28.174 28.174 0 0 0 10.994 2.245z" fill="#040C41"/><path d="M34.353.654s-54.34 11.496-3.445 20.002M27.423 40.654s54.34-11.497 3.445-20.003" stroke="#040C41" stroke-width=".493" stroke-miterlimit="10"/><path d="M34.374 6.244s-54.34 11.497-3.445 20.002M27.442 46.241S81.78 34.744 30.887 26.24" stroke="#040C41" stroke-width=".493" stroke-miterlimit="10"/><path d="M34.242 11.412s-54.34 11.497-3.445 20.002" stroke="#040C41" stroke-width=".493" stroke-miterlimit="10"/><path d="M27.312 51.41s54.34-11.497 3.445-20.003" stroke="#040C41" stroke-width=".493" stroke-miterlimit="10"/><path d="M34.242 16.241s-54.34 11.497-3.445 20.003M27.312 56.241s54.34-11.497 3.445-20.002" stroke="#040C41" stroke-width=".493" stroke-miterlimit="10"/><path d="M34.374 21.41s-54.34 11.496-3.445 20.002M27.442 61.41s54.339-11.497 3.445-20.003" stroke="#040C41" stroke-width=".493" stroke-miterlimit="10"/><path d="M34.242 26.239s-54.34 11.497-3.445 20.002M27.312 66.239s54.34-11.497 3.445-20.003" stroke="#040C41" stroke-width=".493" stroke-miterlimit="10"/><path d="M34.374 30.346s-54.34 11.497-3.445 20.003M27.442 70.346S81.78 58.85 30.887 50.344" stroke="#040C41" stroke-width=".493" stroke-miterlimit="10"/></svg>